<svg xmlns="http://www.w3.org/2000/svg" viewBox="0 0 2040 986" preserveAspectRatio="xMidYMid" width="2040" height="986" style="shape-rendering: auto; display: block; background: rgb(255, 255, 255);" xmlns:xlink="http://www.w3.org/1999/xlink"><g><defs>
<linearGradient y2="1" y1="0" x2="0" x1="0" id="lg-0.4081336322809279">
  <stop offset="0" stop-color="#000000"></stop>
  <stop offset="1" stop-color="#291b44"></stop>
</linearGradient>
</defs>
<rect fill="url(#lg-0.4081336322809279)" height="986" width="2040" y="0" x="0"></rect><g transform="translate(100.81966159052992 951.6376621321162) rotate(219.0574785216142) scale(0.49987327728284314)">
<path d="M6.38-8.33C5.84-10.74,5-13.08,3.83-15.26c-0.85-1.58-1.98-4.16-4.16-3.86c-1.93,0.26-3.02,2.91-3.79,4.44 c-0.51,1-0.95,2.03-1.32,3.09c-0.37,1.06-0.47,2.86-1.16,3.72c-0.67,0.83-2.16,0.35-3.08,0.33c-1.36-0.03-2.71,0.04-4.06,0.21 c-1.72,0.22-4.81,0.42-5.85,2.03c-1.25,1.94,0.7,3.8,1.93,5.13c1.68,1.82,3.6,3.27,5.67,4.62c1.14,0.74,1.08,1.25,0.59,2.47 c-0.51,1.28-0.93,2.59-1.25,3.92c-0.44,1.86-1.34,5.14-0.4,6.93c1.16,2.23,3.65,1.11,5.37,0.35c2.37-1.05,4.49-2.47,6.49-4.1 c1.2-0.97,1.67-0.56,2.78,0.35c1.06,0.86,2.17,1.65,3.35,2.35c1.59,0.95,4.49,2.84,6.43,2.36c2.4-0.58,2-3.33,1.8-5.2 c-0.29-2.64-1.16-4.97-1.98-7.47c-0.5-1.54,0.7-1.87,1.83-2.64c1.09-0.73,2.12-1.54,3.09-2.42c1.41-1.28,4.24-3.58,3.84-5.73 c-0.45-2.42-4.05-2.66-6-2.93c-1.34-0.19-2.68-0.26-4.03-0.24C8.93-7.54,6.7-6.89,6.38-8.33z" fill="#00ceff"></path>
</g><g transform="translate(1737.496701018931 751.7747271631858) rotate(54.887823048379815) scale(0.5407368286969728)">
<path d="M6.38-8.33C5.84-10.74,5-13.08,3.83-15.26c-0.85-1.58-1.98-4.16-4.16-3.86c-1.93,0.26-3.02,2.91-3.79,4.44 c-0.51,1-0.95,2.03-1.32,3.09c-0.37,1.06-0.47,2.86-1.16,3.72c-0.67,0.83-2.16,0.35-3.08,0.33c-1.36-0.03-2.71,0.04-4.06,0.21 c-1.72,0.22-4.81,0.42-5.85,2.03c-1.25,1.94,0.7,3.8,1.93,5.13c1.68,1.82,3.6,3.27,5.67,4.62c1.14,0.74,1.08,1.25,0.59,2.47 c-0.51,1.28-0.93,2.59-1.25,3.92c-0.44,1.86-1.34,5.14-0.4,6.93c1.16,2.23,3.65,1.11,5.37,0.35c2.37-1.05,4.49-2.47,6.49-4.1 c1.2-0.97,1.67-0.56,2.78,0.35c1.06,0.86,2.17,1.65,3.35,2.35c1.59,0.95,4.49,2.84,6.43,2.36c2.4-0.58,2-3.33,1.8-5.2 c-0.29-2.64-1.16-4.97-1.98-7.47c-0.5-1.54,0.7-1.87,1.83-2.64c1.09-0.73,2.12-1.54,3.09-2.42c1.41-1.28,4.24-3.58,3.84-5.73 c-0.45-2.42-4.05-2.66-6-2.93c-1.34-0.19-2.68-0.26-4.03-0.24C8.93-7.54,6.7-6.89,6.38-8.33z" fill="#fff291"></path>
</g><g transform="translate(109.70778609942936 869.9347617415987) rotate(125.676752770343) scale(0.5415944859282702)">
<path d="M6.38-8.33C5.84-10.74,5-13.08,3.83-15.26c-0.85-1.58-1.98-4.16-4.16-3.86c-1.93,0.26-3.02,2.91-3.79,4.44 c-0.51,1-0.95,2.03-1.32,3.09c-0.37,1.06-0.47,2.86-1.16,3.72c-0.67,0.83-2.16,0.35-3.08,0.33c-1.36-0.03-2.71,0.04-4.06,0.21 c-1.72,0.22-4.81,0.42-5.85,2.03c-1.25,1.94,0.7,3.8,1.93,5.13c1.68,1.82,3.6,3.27,5.67,4.62c1.14,0.74,1.08,1.25,0.59,2.47 c-0.51,1.28-0.93,2.59-1.25,3.92c-0.44,1.86-1.34,5.14-0.4,6.93c1.16,2.23,3.65,1.11,5.37,0.35c2.37-1.05,4.49-2.47,6.49-4.1 c1.2-0.97,1.67-0.56,2.78,0.35c1.06,0.86,2.17,1.65,3.35,2.35c1.59,0.95,4.49,2.84,6.43,2.36c2.4-0.58,2-3.33,1.8-5.2 c-0.29-2.64-1.16-4.97-1.98-7.47c-0.5-1.54,0.7-1.87,1.83-2.64c1.09-0.73,2.12-1.54,3.09-2.42c1.41-1.28,4.24-3.58,3.84-5.73 c-0.45-2.42-4.05-2.66-6-2.93c-1.34-0.19-2.68-0.26-4.03-0.24C8.93-7.54,6.7-6.89,6.38-8.33z" fill="#00ceff"></path>
</g><g transform="translate(1634.0336115501334 96.19358197353539) rotate(255.78951118691046) scale(0.49891416759673995)">
<path d="M6.38-8.33C5.84-10.74,5-13.08,3.83-15.26c-0.85-1.58-1.98-4.16-4.16-3.86c-1.93,0.26-3.02,2.91-3.79,4.44 c-0.51,1-0.95,2.03-1.32,3.09c-0.37,1.06-0.47,2.86-1.16,3.72c-0.67,0.83-2.16,0.35-3.08,0.33c-1.36-0.03-2.71,0.04-4.06,0.21 c-1.72,0.22-4.81,0.42-5.85,2.03c-1.25,1.94,0.7,3.8,1.93,5.13c1.68,1.82,3.6,3.27,5.67,4.62c1.14,0.74,1.08,1.25,0.59,2.47 c-0.51,1.28-0.93,2.59-1.25,3.92c-0.44,1.86-1.34,5.14-0.4,6.93c1.16,2.23,3.65,1.11,5.37,0.35c2.37-1.05,4.49-2.47,6.49-4.1 c1.2-0.97,1.67-0.56,2.78,0.35c1.06,0.86,2.17,1.65,3.35,2.35c1.59,0.95,4.49,2.84,6.43,2.36c2.4-0.58,2-3.33,1.8-5.2 c-0.29-2.64-1.16-4.97-1.98-7.47c-0.5-1.54,0.7-1.87,1.83-2.64c1.09-0.73,2.12-1.54,3.09-2.42c1.41-1.28,4.24-3.58,3.84-5.73 c-0.45-2.42-4.05-2.66-6-2.93c-1.34-0.19-2.68-0.26-4.03-0.24C8.93-7.54,6.7-6.89,6.38-8.33z" fill="#00ceff"></path>
</g><g transform="translate(1187.5777727879035 976.2626541699002) rotate(181.16676034834316) scale(0.514459757570542)">
<path d="M6.38-8.33C5.84-10.74,5-13.08,3.83-15.26c-0.85-1.58-1.98-4.16-4.16-3.86c-1.93,0.26-3.02,2.91-3.79,4.44 c-0.51,1-0.95,2.03-1.32,3.09c-0.37,1.06-0.47,2.86-1.16,3.72c-0.67,0.83-2.16,0.35-3.08,0.33c-1.36-0.03-2.71,0.04-4.06,0.21 c-1.72,0.22-4.81,0.42-5.85,2.03c-1.25,1.94,0.7,3.8,1.93,5.13c1.68,1.82,3.6,3.27,5.67,4.62c1.14,0.74,1.08,1.25,0.59,2.47 c-0.51,1.28-0.93,2.59-1.25,3.92c-0.44,1.86-1.34,5.14-0.4,6.93c1.16,2.23,3.65,1.11,5.37,0.35c2.37-1.05,4.49-2.47,6.49-4.1 c1.2-0.97,1.67-0.56,2.78,0.35c1.06,0.86,2.17,1.65,3.35,2.35c1.59,0.95,4.49,2.84,6.43,2.36c2.4-0.58,2-3.33,1.8-5.2 c-0.29-2.64-1.16-4.97-1.98-7.47c-0.5-1.54,0.7-1.87,1.83-2.64c1.09-0.73,2.12-1.54,3.09-2.42c1.41-1.28,4.24-3.58,3.84-5.73 c-0.45-2.42-4.05-2.66-6-2.93c-1.34-0.19-2.68-0.26-4.03-0.24C8.93-7.54,6.7-6.89,6.38-8.33z" fill="#00ceff"></path>
</g><g transform="translate(716.8177305404344 200.12050232594873) rotate(111.78427782356522) scale(0.20728562109436716)">
<g>
<path d="M6.38-8.33C5.84-10.74,5-13.08,3.83-15.26c-0.85-1.58-1.98-4.16-4.16-3.86c-1.93,0.26-3.02,2.91-3.79,4.44 c-0.51,1-0.95,2.03-1.32,3.09c-0.37,1.06-0.47,2.86-1.16,3.72c-0.67,0.83-2.16,0.35-3.08,0.33c-1.36-0.03-2.71,0.04-4.06,0.21 c-1.72,0.22-4.81,0.42-5.85,2.03c-1.25,1.94,0.7,3.8,1.93,5.13c1.68,1.82,3.6,3.27,5.67,4.62c1.14,0.74,1.08,1.25,0.59,2.47 c-0.51,1.28-0.93,2.59-1.25,3.92c-0.44,1.86-1.34,5.14-0.4,6.93c1.16,2.23,3.65,1.11,5.37,0.35c2.37-1.05,4.49-2.47,6.49-4.1 c1.2-0.97,1.67-0.56,2.78,0.35c1.06,0.86,2.17,1.65,3.35,2.35c1.59,0.95,4.49,2.84,6.43,2.36c2.4-0.58,2-3.33,1.8-5.2 c-0.29-2.64-1.16-4.97-1.98-7.47c-0.5-1.54,0.7-1.87,1.83-2.64c1.09-0.73,2.12-1.54,3.09-2.42c1.41-1.28,4.24-3.58,3.84-5.73 c-0.45-2.42-4.05-2.66-6-2.93c-1.34-0.19-2.68-0.26-4.03-0.24C8.93-7.54,6.7-6.89,6.38-8.33z" fill="#fff291"></path>
<animateTransform values="-10;10;-10" begin="-0.07399699387212394s" keySplines="0.4 0 0.6 1;0.4 0 0.6 1" calcMode="spline" keyTimes="0;0.5;1" repeatCount="indefinite" dur="0.6451612903225806s" type="rotate" attributeName="transform"></animateTransform>
</g>
</g><g transform="translate(869.098497931166 943.4609951691587) rotate(336.9815174180088) scale(0.20178609214135249)">
<g>
<path d="M6.38-8.33C5.84-10.74,5-13.08,3.83-15.26c-0.85-1.58-1.98-4.16-4.16-3.86c-1.93,0.26-3.02,2.91-3.79,4.44 c-0.51,1-0.95,2.03-1.32,3.09c-0.37,1.06-0.47,2.86-1.16,3.72c-0.67,0.83-2.16,0.35-3.08,0.33c-1.36-0.03-2.71,0.04-4.06,0.21 c-1.72,0.22-4.81,0.42-5.85,2.03c-1.25,1.94,0.7,3.8,1.93,5.13c1.68,1.82,3.6,3.27,5.67,4.62c1.14,0.74,1.08,1.25,0.59,2.47 c-0.51,1.28-0.93,2.59-1.25,3.92c-0.44,1.86-1.34,5.14-0.4,6.93c1.16,2.23,3.65,1.11,5.37,0.35c2.37-1.05,4.49-2.47,6.49-4.1 c1.2-0.97,1.67-0.56,2.78,0.35c1.06,0.86,2.17,1.65,3.35,2.35c1.59,0.95,4.49,2.84,6.43,2.36c2.4-0.58,2-3.33,1.8-5.2 c-0.29-2.64-1.16-4.97-1.98-7.47c-0.5-1.54,0.7-1.87,1.83-2.64c1.09-0.73,2.12-1.54,3.09-2.42c1.41-1.28,4.24-3.58,3.84-5.73 c-0.45-2.42-4.05-2.66-6-2.93c-1.34-0.19-2.68-0.26-4.03-0.24C8.93-7.54,6.7-6.89,6.38-8.33z" fill="#fff291"></path>
<animateTransform values="-10;10;-10" begin="-0.09249624234015492s" keySplines="0.4 0 0.6 1;0.4 0 0.6 1" calcMode="spline" keyTimes="0;0.5;1" repeatCount="indefinite" dur="0.6451612903225806s" type="rotate" attributeName="transform"></animateTransform>
</g>
</g><g transform="translate(111.13693438344657 474.42425236020443) rotate(17.755184653313787) scale(0.2318206574796419)">
<g>
<path d="M6.38-8.33C5.84-10.74,5-13.08,3.83-15.26c-0.85-1.58-1.98-4.16-4.16-3.86c-1.93,0.26-3.02,2.91-3.79,4.44 c-0.51,1-0.95,2.03-1.32,3.09c-0.37,1.06-0.47,2.86-1.16,3.72c-0.67,0.83-2.16,0.35-3.08,0.33c-1.36-0.03-2.71,0.04-4.06,0.21 c-1.72,0.22-4.81,0.42-5.85,2.03c-1.25,1.94,0.7,3.8,1.93,5.13c1.68,1.82,3.6,3.27,5.67,4.62c1.14,0.74,1.08,1.25,0.59,2.47 c-0.51,1.28-0.93,2.59-1.25,3.92c-0.44,1.86-1.34,5.14-0.4,6.93c1.16,2.23,3.65,1.11,5.37,0.35c2.37-1.05,4.49-2.47,6.49-4.1 c1.2-0.97,1.67-0.56,2.78,0.35c1.06,0.86,2.17,1.65,3.35,2.35c1.59,0.95,4.49,2.84,6.43,2.36c2.4-0.58,2-3.33,1.8-5.2 c-0.29-2.64-1.16-4.97-1.98-7.47c-0.5-1.54,0.7-1.87,1.83-2.64c1.09-0.73,2.12-1.54,3.09-2.42c1.41-1.28,4.24-3.58,3.84-5.73 c-0.45-2.42-4.05-2.66-6-2.93c-1.34-0.19-2.68-0.26-4.03-0.24C8.93-7.54,6.7-6.89,6.38-8.33z" fill="#00ceff"></path>
<animateTransform values="-10;10;-10" begin="-0.11099549080818592s" keySplines="0.4 0 0.6 1;0.4 0 0.6 1" calcMode="spline" keyTimes="0;0.5;1" repeatCount="indefinite" dur="0.6451612903225806s" type="rotate" attributeName="transform"></animateTransform>
</g>
</g><g transform="translate(977.4386550190145 218.7915978319741) rotate(82.83731521227443) scale(0.2231836265897671)">
<g>
<path d="M6.38-8.33C5.84-10.74,5-13.08,3.83-15.26c-0.85-1.58-1.98-4.16-4.16-3.86c-1.93,0.26-3.02,2.91-3.79,4.44 c-0.51,1-0.95,2.03-1.32,3.09c-0.37,1.06-0.47,2.86-1.16,3.72c-0.67,0.83-2.16,0.35-3.08,0.33c-1.36-0.03-2.71,0.04-4.06,0.21 c-1.72,0.22-4.81,0.42-5.85,2.03c-1.25,1.94,0.7,3.8,1.93,5.13c1.68,1.82,3.6,3.27,5.67,4.62c1.14,0.74,1.08,1.25,0.59,2.47 c-0.51,1.28-0.93,2.59-1.25,3.92c-0.44,1.86-1.34,5.14-0.4,6.93c1.16,2.23,3.65,1.11,5.37,0.35c2.37-1.05,4.49-2.47,6.49-4.1 c1.2-0.97,1.67-0.56,2.78,0.35c1.06,0.86,2.17,1.65,3.35,2.35c1.59,0.95,4.49,2.84,6.43,2.36c2.4-0.58,2-3.33,1.8-5.2 c-0.29-2.64-1.16-4.97-1.98-7.47c-0.5-1.54,0.7-1.87,1.83-2.64c1.09-0.73,2.12-1.54,3.09-2.42c1.41-1.28,4.24-3.58,3.84-5.73 c-0.45-2.42-4.05-2.66-6-2.93c-1.34-0.19-2.68-0.26-4.03-0.24C8.93-7.54,6.7-6.89,6.38-8.33z" fill="#fff291"></path>
<animateTransform values="-10;10;-10" begin="-0.12949473927621688s" keySplines="0.4 0 0.6 1;0.4 0 0.6 1" calcMode="spline" keyTimes="0;0.5;1" repeatCount="indefinite" dur="0.6451612903225806s" type="rotate" attributeName="transform"></animateTransform>
</g>
</g><g transform="translate(1950.3243258661078 122.91076872228436) rotate(2.051705316866647) scale(0.26440511162435815)">
<g>
<path d="M6.38-8.33C5.84-10.74,5-13.08,3.83-15.26c-0.85-1.58-1.98-4.16-4.16-3.86c-1.93,0.26-3.02,2.91-3.79,4.44 c-0.51,1-0.95,2.03-1.32,3.09c-0.37,1.06-0.47,2.86-1.16,3.72c-0.67,0.83-2.16,0.35-3.08,0.33c-1.36-0.03-2.71,0.04-4.06,0.21 c-1.72,0.22-4.81,0.42-5.85,2.03c-1.25,1.94,0.7,3.8,1.93,5.13c1.68,1.82,3.6,3.27,5.67,4.62c1.14,0.74,1.08,1.25,0.59,2.47 c-0.51,1.28-0.93,2.59-1.25,3.92c-0.44,1.86-1.34,5.14-0.4,6.93c1.16,2.23,3.65,1.11,5.37,0.35c2.37-1.05,4.49-2.47,6.49-4.1 c1.2-0.97,1.67-0.56,2.78,0.35c1.06,0.86,2.17,1.65,3.35,2.35c1.59,0.95,4.49,2.84,6.43,2.36c2.4-0.58,2-3.33,1.8-5.2 c-0.29-2.64-1.16-4.97-1.98-7.47c-0.5-1.54,0.7-1.87,1.83-2.64c1.09-0.73,2.12-1.54,3.09-2.42c1.41-1.28,4.24-3.58,3.84-5.73 c-0.45-2.42-4.05-2.66-6-2.93c-1.34-0.19-2.68-0.26-4.03-0.24C8.93-7.54,6.7-6.89,6.38-8.33z" fill="#00ceff"></path>
<animateTransform values="-10;10;-10" begin="-0.14799398774424788s" keySplines="0.4 0 0.6 1;0.4 0 0.6 1" calcMode="spline" keyTimes="0;0.5;1" repeatCount="indefinite" dur="0.6451612903225806s" type="rotate" attributeName="transform"></animateTransform>
</g>
</g><g transform="translate(1368.4162582465797 305.17970077522693) rotate(17.245004650690607) scale(0.18640630880967798)">
<g>
<path d="M6.38-8.33C5.84-10.74,5-13.08,3.83-15.26c-0.85-1.58-1.98-4.16-4.16-3.86c-1.93,0.26-3.02,2.91-3.79,4.44 c-0.51,1-0.95,2.03-1.32,3.09c-0.37,1.06-0.47,2.86-1.16,3.72c-0.67,0.83-2.16,0.35-3.08,0.33c-1.36-0.03-2.71,0.04-4.06,0.21 c-1.72,0.22-4.81,0.42-5.85,2.03c-1.25,1.94,0.7,3.8,1.93,5.13c1.68,1.82,3.6,3.27,5.67,4.62c1.14,0.74,1.08,1.25,0.59,2.47 c-0.51,1.28-0.93,2.59-1.25,3.92c-0.44,1.86-1.34,5.14-0.4,6.93c1.16,2.23,3.65,1.11,5.37,0.35c2.37-1.05,4.49-2.47,6.49-4.1 c1.2-0.97,1.67-0.56,2.78,0.35c1.06,0.86,2.17,1.65,3.35,2.35c1.59,0.95,4.49,2.84,6.43,2.36c2.4-0.58,2-3.33,1.8-5.2 c-0.29-2.64-1.16-4.97-1.98-7.47c-0.5-1.54,0.7-1.87,1.83-2.64c1.09-0.73,2.12-1.54,3.09-2.42c1.41-1.28,4.24-3.58,3.84-5.73 c-0.45-2.42-4.05-2.66-6-2.93c-1.34-0.19-2.68-0.26-4.03-0.24C8.93-7.54,6.7-6.89,6.38-8.33z" fill="#fff291"></path>
<animateTransform values="-10;10;-10" begin="-0.16649323621227888s" keySplines="0.4 0 0.6 1;0.4 0 0.6 1" calcMode="spline" keyTimes="0;0.5;1" repeatCount="indefinite" dur="0.6451612903225806s" type="rotate" attributeName="transform"></animateTransform>
</g>
</g><g transform="translate(1003.2926133600222 567.0492487872604) rotate(2.103647793317742) scale(0.18536886575520445)">
<g>
<path d="M6.38-8.33C5.84-10.74,5-13.08,3.83-15.26c-0.85-1.58-1.98-4.16-4.16-3.86c-1.93,0.26-3.02,2.91-3.79,4.44 c-0.51,1-0.95,2.03-1.32,3.09c-0.37,1.06-0.47,2.86-1.16,3.72c-0.67,0.83-2.16,0.35-3.08,0.33c-1.36-0.03-2.71,0.04-4.06,0.21 c-1.72,0.22-4.81,0.42-5.85,2.03c-1.25,1.94,0.7,3.8,1.93,5.13c1.68,1.82,3.6,3.27,5.67,4.62c1.14,0.74,1.08,1.25,0.59,2.47 c-0.51,1.28-0.93,2.59-1.25,3.92c-0.44,1.86-1.34,5.14-0.4,6.93c1.16,2.23,3.65,1.11,5.37,0.35c2.37-1.05,4.49-2.47,6.49-4.1 c1.2-0.97,1.67-0.56,2.78,0.35c1.06,0.86,2.17,1.65,3.35,2.35c1.59,0.95,4.49,2.84,6.43,2.36c2.4-0.58,2-3.33,1.8-5.2 c-0.29-2.64-1.16-4.97-1.98-7.47c-0.5-1.54,0.7-1.87,1.83-2.64c1.09-0.73,2.12-1.54,3.09-2.42c1.41-1.28,4.24-3.58,3.84-5.73 c-0.45-2.42-4.05-2.66-6-2.93c-1.34-0.19-2.68-0.26-4.03-0.24C8.93-7.54,6.7-6.89,6.38-8.33z" fill="#fff291"></path>
<animateTransform values="-10;10;-10" begin="-0.18499248468030985s" keySplines="0.4 0 0.6 1;0.4 0 0.6 1" calcMode="spline" keyTimes="0;0.5;1" repeatCount="indefinite" dur="0.6451612903225806s" type="rotate" attributeName="transform"></animateTransform>
</g>
</g><g transform="translate(1369.6450054426814 383.28316305906696) rotate(6.579605431856193) scale(0.2312392738924193)">
<g>
<path d="M6.38-8.33C5.84-10.74,5-13.08,3.83-15.26c-0.85-1.58-1.98-4.16-4.16-3.86c-1.93,0.26-3.02,2.91-3.79,4.44 c-0.51,1-0.95,2.03-1.32,3.09c-0.37,1.06-0.47,2.86-1.16,3.72c-0.67,0.83-2.16,0.35-3.08,0.33c-1.36-0.03-2.71,0.04-4.06,0.21 c-1.72,0.22-4.81,0.42-5.85,2.03c-1.25,1.94,0.7,3.8,1.93,5.13c1.68,1.82,3.6,3.27,5.67,4.62c1.14,0.74,1.08,1.25,0.59,2.47 c-0.51,1.28-0.93,2.59-1.25,3.92c-0.44,1.86-1.34,5.14-0.4,6.93c1.16,2.23,3.65,1.11,5.37,0.35c2.37-1.05,4.49-2.47,6.49-4.1 c1.2-0.97,1.67-0.56,2.78,0.35c1.06,0.86,2.17,1.65,3.35,2.35c1.59,0.95,4.49,2.84,6.43,2.36c2.4-0.58,2-3.33,1.8-5.2 c-0.29-2.64-1.16-4.97-1.98-7.47c-0.5-1.54,0.7-1.87,1.83-2.64c1.09-0.73,2.12-1.54,3.09-2.42c1.41-1.28,4.24-3.58,3.84-5.73 c-0.45-2.42-4.05-2.66-6-2.93c-1.34-0.19-2.68-0.26-4.03-0.24C8.93-7.54,6.7-6.89,6.38-8.33z" fill="#fff291"></path>
<animateTransform values="-10;10;-10" begin="-0.20349173314834085s" keySplines="0.4 0 0.6 1;0.4 0 0.6 1" calcMode="spline" keyTimes="0;0.5;1" repeatCount="indefinite" dur="0.6451612903225806s" type="rotate" attributeName="transform"></animateTransform>
</g>
</g><g transform="translate(1415.860053178193 712.5409603437158) rotate(354.54291447375664) scale(0.2650372376358746)">
<g>
<path d="M6.38-8.33C5.84-10.74,5-13.08,3.83-15.26c-0.85-1.58-1.98-4.16-4.16-3.86c-1.93,0.26-3.02,2.91-3.79,4.44 c-0.51,1-0.95,2.03-1.32,3.09c-0.37,1.06-0.47,2.86-1.16,3.72c-0.67,0.83-2.16,0.35-3.08,0.33c-1.36-0.03-2.71,0.04-4.06,0.21 c-1.72,0.22-4.81,0.42-5.85,2.03c-1.25,1.94,0.7,3.8,1.93,5.13c1.68,1.82,3.6,3.27,5.67,4.62c1.14,0.74,1.08,1.25,0.59,2.47 c-0.51,1.28-0.93,2.59-1.25,3.92c-0.44,1.86-1.34,5.14-0.4,6.93c1.16,2.23,3.65,1.11,5.37,0.35c2.37-1.05,4.49-2.47,6.49-4.1 c1.2-0.97,1.67-0.56,2.78,0.35c1.06,0.86,2.17,1.65,3.35,2.35c1.59,0.95,4.49,2.84,6.43,2.36c2.4-0.58,2-3.33,1.8-5.2 c-0.29-2.64-1.16-4.97-1.98-7.47c-0.5-1.54,0.7-1.87,1.83-2.64c1.09-0.73,2.12-1.54,3.09-2.42c1.41-1.28,4.24-3.58,3.84-5.73 c-0.45-2.42-4.05-2.66-6-2.93c-1.34-0.19-2.68-0.26-4.03-0.24C8.93-7.54,6.7-6.89,6.38-8.33z" fill="#fff291"></path>
<animateTransform values="-10;10;-10" begin="-0.22199098161637185s" keySplines="0.4 0 0.6 1;0.4 0 0.6 1" calcMode="spline" keyTimes="0;0.5;1" repeatCount="indefinite" dur="0.6451612903225806s" type="rotate" attributeName="transform"></animateTransform>
</g>
</g><g transform="translate(77.85460389978375 658.1639103317128) rotate(229.335543439255) scale(0.27599864014885067)">
<g>
<path d="M6.38-8.33C5.84-10.74,5-13.08,3.83-15.26c-0.85-1.58-1.98-4.16-4.16-3.86c-1.93,0.26-3.02,2.91-3.79,4.44 c-0.51,1-0.95,2.03-1.32,3.09c-0.37,1.06-0.47,2.86-1.16,3.72c-0.67,0.83-2.16,0.35-3.08,0.33c-1.36-0.03-2.71,0.04-4.06,0.21 c-1.72,0.22-4.81,0.42-5.85,2.03c-1.25,1.94,0.7,3.8,1.93,5.13c1.68,1.82,3.6,3.27,5.67,4.62c1.14,0.74,1.08,1.25,0.59,2.47 c-0.51,1.28-0.93,2.59-1.25,3.92c-0.44,1.86-1.34,5.14-0.4,6.93c1.16,2.23,3.65,1.11,5.37,0.35c2.37-1.05,4.49-2.47,6.49-4.1 c1.2-0.97,1.67-0.56,2.78,0.35c1.06,0.86,2.17,1.65,3.35,2.35c1.59,0.95,4.49,2.84,6.43,2.36c2.4-0.58,2-3.33,1.8-5.2 c-0.29-2.64-1.16-4.97-1.98-7.47c-0.5-1.54,0.7-1.87,1.83-2.64c1.09-0.73,2.12-1.54,3.09-2.42c1.41-1.28,4.24-3.58,3.84-5.73 c-0.45-2.42-4.05-2.66-6-2.93c-1.34-0.19-2.68-0.26-4.03-0.24C8.93-7.54,6.7-6.89,6.38-8.33z" fill="#00ceff"></path>
<animateTransform values="-10;10;-10" begin="-0.24049023008440282s" keySplines="0.4 0 0.6 1;0.4 0 0.6 1" calcMode="spline" keyTimes="0;0.5;1" repeatCount="indefinite" dur="0.6451612903225806s" type="rotate" attributeName="transform"></animateTransform>
</g>
</g><g transform="translate(1410.3909469850553 813.5931243471862) rotate(114.22381103615334) scale(0.2096167970070278)">
<g>
<path d="M6.38-8.33C5.84-10.74,5-13.08,3.83-15.26c-0.85-1.58-1.98-4.16-4.16-3.86c-1.93,0.26-3.02,2.91-3.79,4.44 c-0.51,1-0.95,2.03-1.32,3.09c-0.37,1.06-0.47,2.86-1.16,3.72c-0.67,0.83-2.16,0.35-3.08,0.33c-1.36-0.03-2.71,0.04-4.06,0.21 c-1.72,0.22-4.81,0.42-5.85,2.03c-1.25,1.94,0.7,3.8,1.93,5.13c1.68,1.82,3.6,3.27,5.67,4.62c1.14,0.74,1.08,1.25,0.59,2.47 c-0.51,1.28-0.93,2.59-1.25,3.92c-0.44,1.86-1.34,5.14-0.4,6.93c1.16,2.23,3.65,1.11,5.37,0.35c2.37-1.05,4.49-2.47,6.49-4.1 c1.2-0.97,1.67-0.56,2.78,0.35c1.06,0.86,2.17,1.65,3.35,2.35c1.59,0.95,4.49,2.84,6.43,2.36c2.4-0.58,2-3.33,1.8-5.2 c-0.29-2.64-1.16-4.97-1.98-7.47c-0.5-1.54,0.7-1.87,1.83-2.64c1.09-0.73,2.12-1.54,3.09-2.42c1.41-1.28,4.24-3.58,3.84-5.73 c-0.45-2.42-4.05-2.66-6-2.93c-1.34-0.19-2.68-0.26-4.03-0.24C8.93-7.54,6.7-6.89,6.38-8.33z" fill="#fff291"></path>
<animateTransform values="-10;10;-10" begin="-0.25898947855243376s" keySplines="0.4 0 0.6 1;0.4 0 0.6 1" calcMode="spline" keyTimes="0;0.5;1" repeatCount="indefinite" dur="0.6451612903225806s" type="rotate" attributeName="transform"></animateTransform>
</g>
</g><g transform="translate(1778.9319773242705 102.31590674346141) rotate(273.4599226379501) scale(0.26779168640865036)">
<g>
<path d="M6.38-8.33C5.84-10.74,5-13.08,3.83-15.26c-0.85-1.58-1.98-4.16-4.16-3.86c-1.93,0.26-3.02,2.91-3.79,4.44 c-0.51,1-0.95,2.03-1.32,3.09c-0.37,1.06-0.47,2.86-1.16,3.72c-0.67,0.83-2.16,0.35-3.08,0.33c-1.36-0.03-2.71,0.04-4.06,0.21 c-1.72,0.22-4.81,0.42-5.85,2.03c-1.25,1.94,0.7,3.8,1.93,5.13c1.68,1.82,3.6,3.27,5.67,4.62c1.14,0.74,1.08,1.25,0.59,2.47 c-0.51,1.28-0.93,2.59-1.25,3.92c-0.44,1.86-1.34,5.14-0.4,6.93c1.16,2.23,3.65,1.11,5.37,0.35c2.37-1.05,4.49-2.47,6.49-4.1 c1.2-0.97,1.67-0.56,2.78,0.35c1.06,0.86,2.17,1.65,3.35,2.35c1.59,0.95,4.49,2.84,6.43,2.36c2.4-0.58,2-3.33,1.8-5.2 c-0.29-2.64-1.16-4.97-1.98-7.47c-0.5-1.54,0.7-1.87,1.83-2.64c1.09-0.73,2.12-1.54,3.09-2.42c1.41-1.28,4.24-3.58,3.84-5.73 c-0.45-2.42-4.05-2.66-6-2.93c-1.34-0.19-2.68-0.26-4.03-0.24C8.93-7.54,6.7-6.89,6.38-8.33z" fill="#fff291"></path>
<animateTransform values="-10;10;-10" begin="-0.2774887270204648s" keySplines="0.4 0 0.6 1;0.4 0 0.6 1" calcMode="spline" keyTimes="0;0.5;1" repeatCount="indefinite" dur="0.6451612903225806s" type="rotate" attributeName="transform"></animateTransform>
</g>
</g><g transform="translate(1975.8308788582729 159.9289814500847) rotate(109.88178770679411) scale(0.22670515998885324)">
<g>
<path d="M6.38-8.33C5.84-10.74,5-13.08,3.83-15.26c-0.85-1.58-1.98-4.16-4.16-3.86c-1.93,0.26-3.02,2.91-3.79,4.44 c-0.51,1-0.95,2.03-1.32,3.09c-0.37,1.06-0.47,2.86-1.16,3.72c-0.67,0.83-2.16,0.35-3.08,0.33c-1.36-0.03-2.71,0.04-4.06,0.21 c-1.72,0.22-4.81,0.42-5.85,2.03c-1.25,1.94,0.7,3.8,1.93,5.13c1.68,1.82,3.6,3.27,5.67,4.62c1.14,0.74,1.08,1.25,0.59,2.47 c-0.51,1.28-0.93,2.59-1.25,3.92c-0.44,1.86-1.34,5.14-0.4,6.93c1.16,2.23,3.65,1.11,5.37,0.35c2.37-1.05,4.49-2.47,6.49-4.1 c1.2-0.97,1.67-0.56,2.78,0.35c1.06,0.86,2.17,1.65,3.35,2.35c1.59,0.95,4.49,2.84,6.43,2.36c2.4-0.58,2-3.33,1.8-5.2 c-0.29-2.64-1.16-4.97-1.98-7.47c-0.5-1.54,0.7-1.87,1.83-2.64c1.09-0.73,2.12-1.54,3.09-2.42c1.41-1.28,4.24-3.58,3.84-5.73 c-0.45-2.42-4.05-2.66-6-2.93c-1.34-0.19-2.68-0.26-4.03-0.24C8.93-7.54,6.7-6.89,6.38-8.33z" fill="#00ceff"></path>
<animateTransform values="-10;10;-10" begin="-0.29598797548849576s" keySplines="0.4 0 0.6 1;0.4 0 0.6 1" calcMode="spline" keyTimes="0;0.5;1" repeatCount="indefinite" dur="0.6451612903225806s" type="rotate" attributeName="transform"></animateTransform>
</g>
</g><g transform="translate(246.0406203039652 42.54123862052487) rotate(35.147819048735755) scale(0.22294687645311753)">
<g>
<path d="M6.38-8.33C5.84-10.74,5-13.08,3.83-15.26c-0.85-1.58-1.98-4.16-4.16-3.86c-1.93,0.26-3.02,2.91-3.79,4.44 c-0.51,1-0.95,2.03-1.32,3.09c-0.37,1.06-0.47,2.86-1.16,3.72c-0.67,0.83-2.16,0.35-3.08,0.33c-1.36-0.03-2.71,0.04-4.06,0.21 c-1.72,0.22-4.81,0.42-5.85,2.03c-1.25,1.94,0.7,3.8,1.93,5.13c1.68,1.82,3.6,3.27,5.67,4.62c1.14,0.74,1.08,1.25,0.59,2.47 c-0.51,1.28-0.93,2.59-1.25,3.92c-0.44,1.86-1.34,5.14-0.4,6.93c1.16,2.23,3.65,1.11,5.37,0.35c2.37-1.05,4.49-2.47,6.49-4.1 c1.2-0.97,1.67-0.56,2.78,0.35c1.06,0.86,2.17,1.65,3.35,2.35c1.59,0.95,4.49,2.84,6.43,2.36c2.4-0.58,2-3.33,1.8-5.2 c-0.29-2.64-1.16-4.97-1.98-7.47c-0.5-1.54,0.7-1.87,1.83-2.64c1.09-0.73,2.12-1.54,3.09-2.42c1.41-1.28,4.24-3.58,3.84-5.73 c-0.45-2.42-4.05-2.66-6-2.93c-1.34-0.19-2.68-0.26-4.03-0.24C8.93-7.54,6.7-6.89,6.38-8.33z" fill="#00ceff"></path>
<animateTransform values="-10;10;-10" begin="-0.31448722395652673s" keySplines="0.4 0 0.6 1;0.4 0 0.6 1" calcMode="spline" keyTimes="0;0.5;1" repeatCount="indefinite" dur="0.6451612903225806s" type="rotate" attributeName="transform"></animateTransform>
</g>
</g><g transform="translate(520.6113859428266 185.11955056359335) rotate(160.77811056303085) scale(0.204574794329975)">
<g>
<path d="M6.38-8.33C5.84-10.74,5-13.08,3.83-15.26c-0.85-1.58-1.98-4.16-4.16-3.86c-1.93,0.26-3.02,2.91-3.79,4.44 c-0.51,1-0.95,2.03-1.32,3.09c-0.37,1.06-0.47,2.86-1.16,3.72c-0.67,0.83-2.16,0.35-3.08,0.33c-1.36-0.03-2.71,0.04-4.06,0.21 c-1.72,0.22-4.81,0.42-5.85,2.03c-1.25,1.94,0.7,3.8,1.93,5.13c1.68,1.82,3.6,3.27,5.67,4.62c1.14,0.74,1.08,1.25,0.59,2.47 c-0.51,1.28-0.93,2.59-1.25,3.92c-0.44,1.86-1.34,5.14-0.4,6.93c1.16,2.23,3.65,1.11,5.37,0.35c2.37-1.05,4.49-2.47,6.49-4.1 c1.2-0.97,1.67-0.56,2.78,0.35c1.06,0.86,2.17,1.65,3.35,2.35c1.59,0.95,4.49,2.84,6.43,2.36c2.4-0.58,2-3.33,1.8-5.2 c-0.29-2.64-1.16-4.97-1.98-7.47c-0.5-1.54,0.7-1.87,1.83-2.64c1.09-0.73,2.12-1.54,3.09-2.42c1.41-1.28,4.24-3.58,3.84-5.73 c-0.45-2.42-4.05-2.66-6-2.93c-1.34-0.19-2.68-0.26-4.03-0.24C8.93-7.54,6.7-6.89,6.38-8.33z" fill="#00ceff"></path>
<animateTransform values="-10;10;-10" begin="-0.33298647242455776s" keySplines="0.4 0 0.6 1;0.4 0 0.6 1" calcMode="spline" keyTimes="0;0.5;1" repeatCount="indefinite" dur="0.6451612903225806s" type="rotate" attributeName="transform"></animateTransform>
</g>
</g><g transform="translate(576.1865703252698 44.28211866466806) rotate(13.910060126296088) scale(0.21386636432140899)">
<g>
<path d="M6.38-8.33C5.84-10.74,5-13.08,3.83-15.26c-0.85-1.58-1.98-4.16-4.16-3.86c-1.93,0.26-3.02,2.91-3.79,4.44 c-0.51,1-0.95,2.03-1.32,3.09c-0.37,1.06-0.47,2.86-1.16,3.72c-0.67,0.83-2.16,0.35-3.08,0.33c-1.36-0.03-2.71,0.04-4.06,0.21 c-1.72,0.22-4.81,0.42-5.85,2.03c-1.25,1.94,0.7,3.8,1.93,5.13c1.68,1.82,3.6,3.27,5.67,4.62c1.14,0.74,1.08,1.25,0.59,2.47 c-0.51,1.28-0.93,2.59-1.25,3.92c-0.44,1.86-1.34,5.14-0.4,6.93c1.16,2.23,3.65,1.11,5.37,0.35c2.37-1.05,4.49-2.47,6.49-4.1 c1.2-0.97,1.67-0.56,2.78,0.35c1.06,0.86,2.17,1.65,3.35,2.35c1.59,0.95,4.49,2.84,6.43,2.36c2.4-0.58,2-3.33,1.8-5.2 c-0.29-2.64-1.16-4.97-1.98-7.47c-0.5-1.54,0.7-1.87,1.83-2.64c1.09-0.73,2.12-1.54,3.09-2.42c1.41-1.28,4.24-3.58,3.84-5.73 c-0.45-2.42-4.05-2.66-6-2.93c-1.34-0.19-2.68-0.26-4.03-0.24C8.93-7.54,6.7-6.89,6.38-8.33z" fill="#fff291"></path>
<animateTransform values="-10;10;-10" begin="-0.3514857208925887s" keySplines="0.4 0 0.6 1;0.4 0 0.6 1" calcMode="spline" keyTimes="0;0.5;1" repeatCount="indefinite" dur="0.6451612903225806s" type="rotate" attributeName="transform"></animateTransform>
</g>
</g><g transform="translate(937.3308639327732 672.0859538474992) rotate(222.83009824757062) scale(0.2769820167881432)">
<g>
<path d="M6.38-8.33C5.84-10.74,5-13.08,3.83-15.26c-0.85-1.58-1.98-4.16-4.16-3.86c-1.93,0.26-3.02,2.91-3.79,4.44 c-0.51,1-0.95,2.03-1.32,3.09c-0.37,1.06-0.47,2.86-1.16,3.72c-0.67,0.83-2.16,0.35-3.08,0.33c-1.36-0.03-2.71,0.04-4.06,0.21 c-1.72,0.22-4.81,0.42-5.85,2.03c-1.25,1.94,0.7,3.8,1.93,5.13c1.68,1.82,3.6,3.27,5.67,4.62c1.14,0.74,1.08,1.25,0.59,2.47 c-0.51,1.28-0.93,2.59-1.25,3.92c-0.44,1.86-1.34,5.14-0.4,6.93c1.16,2.23,3.65,1.11,5.37,0.35c2.37-1.05,4.49-2.47,6.49-4.1 c1.2-0.97,1.67-0.56,2.78,0.35c1.06,0.86,2.17,1.65,3.35,2.35c1.59,0.95,4.49,2.84,6.43,2.36c2.4-0.58,2-3.33,1.8-5.2 c-0.29-2.64-1.16-4.97-1.98-7.47c-0.5-1.54,0.7-1.87,1.83-2.64c1.09-0.73,2.12-1.54,3.09-2.42c1.41-1.28,4.24-3.58,3.84-5.73 c-0.45-2.42-4.05-2.66-6-2.93c-1.34-0.19-2.68-0.26-4.03-0.24C8.93-7.54,6.7-6.89,6.38-8.33z" fill="#fff291"></path>
<animateTransform values="-10;10;-10" begin="-0.3699849693606197s" keySplines="0.4 0 0.6 1;0.4 0 0.6 1" calcMode="spline" keyTimes="0;0.5;1" repeatCount="indefinite" dur="0.6451612903225806s" type="rotate" attributeName="transform"></animateTransform>
</g>
</g><g transform="translate(1098.1150394830763 401.32368130395196) rotate(352.74944841035887) scale(0.20375547833168203)">
<g>
<path d="M6.38-8.33C5.84-10.74,5-13.08,3.83-15.26c-0.85-1.58-1.98-4.16-4.16-3.86c-1.93,0.26-3.02,2.91-3.79,4.44 c-0.51,1-0.95,2.03-1.32,3.09c-0.37,1.06-0.47,2.86-1.16,3.72c-0.67,0.83-2.16,0.35-3.08,0.33c-1.36-0.03-2.71,0.04-4.06,0.21 c-1.72,0.22-4.81,0.42-5.85,2.03c-1.25,1.94,0.7,3.8,1.93,5.13c1.68,1.82,3.6,3.27,5.67,4.62c1.14,0.74,1.08,1.25,0.59,2.47 c-0.51,1.28-0.93,2.59-1.25,3.92c-0.44,1.86-1.34,5.14-0.4,6.93c1.16,2.23,3.65,1.11,5.37,0.35c2.37-1.05,4.49-2.47,6.49-4.1 c1.2-0.97,1.67-0.56,2.78,0.35c1.06,0.86,2.17,1.65,3.35,2.35c1.59,0.95,4.49,2.84,6.43,2.36c2.4-0.58,2-3.33,1.8-5.2 c-0.29-2.64-1.16-4.97-1.98-7.47c-0.5-1.54,0.7-1.87,1.83-2.64c1.09-0.73,2.12-1.54,3.09-2.42c1.41-1.28,4.24-3.58,3.84-5.73 c-0.45-2.42-4.05-2.66-6-2.93c-1.34-0.19-2.68-0.26-4.03-0.24C8.93-7.54,6.7-6.89,6.38-8.33z" fill="#fff291"></path>
<animateTransform values="-10;10;-10" begin="-0.3884842178286507s" keySplines="0.4 0 0.6 1;0.4 0 0.6 1" calcMode="spline" keyTimes="0;0.5;1" repeatCount="indefinite" dur="0.6451612903225806s" type="rotate" attributeName="transform"></animateTransform>
</g>
</g><g transform="translate(1512.1602281462754 569.7447792943692) rotate(284.2472332453397) scale(0.18805262856618124)">
<g>
<path d="M6.38-8.33C5.84-10.74,5-13.08,3.83-15.26c-0.85-1.58-1.98-4.16-4.16-3.86c-1.93,0.26-3.02,2.91-3.79,4.44 c-0.51,1-0.95,2.03-1.32,3.09c-0.37,1.06-0.47,2.86-1.16,3.72c-0.67,0.83-2.16,0.35-3.08,0.33c-1.36-0.03-2.71,0.04-4.06,0.21 c-1.72,0.22-4.81,0.42-5.85,2.03c-1.25,1.94,0.7,3.8,1.93,5.13c1.68,1.82,3.6,3.27,5.67,4.62c1.14,0.74,1.08,1.25,0.59,2.47 c-0.51,1.28-0.93,2.59-1.25,3.92c-0.44,1.86-1.34,5.14-0.4,6.93c1.16,2.23,3.65,1.11,5.37,0.35c2.37-1.05,4.49-2.47,6.49-4.1 c1.2-0.97,1.67-0.56,2.78,0.35c1.06,0.86,2.17,1.65,3.35,2.35c1.59,0.95,4.49,2.84,6.43,2.36c2.4-0.58,2-3.33,1.8-5.2 c-0.29-2.64-1.16-4.97-1.98-7.47c-0.5-1.54,0.7-1.87,1.83-2.64c1.09-0.73,2.12-1.54,3.09-2.42c1.41-1.28,4.24-3.58,3.84-5.73 c-0.45-2.42-4.05-2.66-6-2.93c-1.34-0.19-2.68-0.26-4.03-0.24C8.93-7.54,6.7-6.89,6.38-8.33z" fill="#00ceff"></path>
<animateTransform values="-10;10;-10" begin="-0.4069834662966817s" keySplines="0.4 0 0.6 1;0.4 0 0.6 1" calcMode="spline" keyTimes="0;0.5;1" repeatCount="indefinite" dur="0.6451612903225806s" type="rotate" attributeName="transform"></animateTransform>
</g>
</g><g transform="translate(1238.6132562607465 27.44222310338942) rotate(142.92705671417818) scale(0.24606485721737031)">
<g>
<path d="M6.38-8.33C5.84-10.74,5-13.08,3.83-15.26c-0.85-1.58-1.98-4.16-4.16-3.86c-1.93,0.26-3.02,2.91-3.79,4.44 c-0.51,1-0.95,2.03-1.32,3.09c-0.37,1.06-0.47,2.86-1.16,3.72c-0.67,0.83-2.16,0.35-3.08,0.33c-1.36-0.03-2.71,0.04-4.06,0.21 c-1.72,0.22-4.81,0.42-5.85,2.03c-1.25,1.94,0.7,3.8,1.93,5.13c1.68,1.82,3.6,3.27,5.67,4.62c1.14,0.74,1.08,1.25,0.59,2.47 c-0.51,1.28-0.93,2.59-1.25,3.92c-0.44,1.86-1.34,5.14-0.4,6.93c1.16,2.23,3.65,1.11,5.37,0.35c2.37-1.05,4.49-2.47,6.49-4.1 c1.2-0.97,1.67-0.56,2.78,0.35c1.06,0.86,2.17,1.65,3.35,2.35c1.59,0.95,4.49,2.84,6.43,2.36c2.4-0.58,2-3.33,1.8-5.2 c-0.29-2.64-1.16-4.97-1.98-7.47c-0.5-1.54,0.7-1.87,1.83-2.64c1.09-0.73,2.12-1.54,3.09-2.42c1.41-1.28,4.24-3.58,3.84-5.73 c-0.45-2.42-4.05-2.66-6-2.93c-1.34-0.19-2.68-0.26-4.03-0.24C8.93-7.54,6.7-6.89,6.38-8.33z" fill="#00ceff"></path>
<animateTransform values="-10;10;-10" begin="-0.42548271476471267s" keySplines="0.4 0 0.6 1;0.4 0 0.6 1" calcMode="spline" keyTimes="0;0.5;1" repeatCount="indefinite" dur="0.6451612903225806s" type="rotate" attributeName="transform"></animateTransform>
</g>
</g><g transform="translate(55.17388044439497 17.836590623380314) rotate(121.35985800058383) scale(0.19003405451774855)">
<g>
<path d="M6.38-8.33C5.84-10.74,5-13.08,3.83-15.26c-0.85-1.58-1.98-4.16-4.16-3.86c-1.93,0.26-3.02,2.91-3.79,4.44 c-0.51,1-0.95,2.03-1.32,3.09c-0.37,1.06-0.47,2.86-1.16,3.72c-0.67,0.83-2.16,0.35-3.08,0.33c-1.36-0.03-2.71,0.04-4.06,0.21 c-1.72,0.22-4.81,0.42-5.85,2.03c-1.25,1.94,0.7,3.8,1.93,5.13c1.68,1.82,3.6,3.27,5.67,4.62c1.14,0.74,1.08,1.25,0.59,2.47 c-0.51,1.28-0.93,2.59-1.25,3.92c-0.44,1.86-1.34,5.14-0.4,6.93c1.16,2.23,3.65,1.11,5.37,0.35c2.37-1.05,4.49-2.47,6.49-4.1 c1.2-0.97,1.67-0.56,2.78,0.35c1.06,0.86,2.17,1.65,3.35,2.35c1.59,0.95,4.49,2.84,6.43,2.36c2.4-0.58,2-3.33,1.8-5.2 c-0.29-2.64-1.16-4.97-1.98-7.47c-0.5-1.54,0.7-1.87,1.83-2.64c1.09-0.73,2.12-1.54,3.09-2.42c1.41-1.28,4.24-3.58,3.84-5.73 c-0.45-2.42-4.05-2.66-6-2.93c-1.34-0.19-2.68-0.26-4.03-0.24C8.93-7.54,6.7-6.89,6.38-8.33z" fill="#fff291"></path>
<animateTransform values="-10;10;-10" begin="-0.4439819632327437s" keySplines="0.4 0 0.6 1;0.4 0 0.6 1" calcMode="spline" keyTimes="0;0.5;1" repeatCount="indefinite" dur="0.6451612903225806s" type="rotate" attributeName="transform"></animateTransform>
</g>
</g><g transform="translate(361.72665948334924 668.5791784431648) rotate(299.7367645411657) scale(0.22463628392557605)">
<g>
<path d="M6.38-8.33C5.84-10.74,5-13.08,3.83-15.26c-0.85-1.58-1.98-4.16-4.16-3.86c-1.93,0.26-3.02,2.91-3.79,4.44 c-0.51,1-0.95,2.03-1.32,3.09c-0.37,1.06-0.47,2.86-1.16,3.72c-0.67,0.83-2.16,0.35-3.08,0.33c-1.36-0.03-2.71,0.04-4.06,0.21 c-1.72,0.22-4.81,0.42-5.85,2.03c-1.25,1.94,0.7,3.8,1.93,5.13c1.68,1.82,3.6,3.27,5.67,4.62c1.14,0.74,1.08,1.25,0.59,2.47 c-0.51,1.28-0.93,2.59-1.25,3.92c-0.44,1.86-1.34,5.14-0.4,6.93c1.16,2.23,3.65,1.11,5.37,0.35c2.37-1.05,4.49-2.47,6.49-4.1 c1.2-0.97,1.67-0.56,2.78,0.35c1.06,0.86,2.17,1.65,3.35,2.35c1.59,0.95,4.49,2.84,6.43,2.36c2.4-0.58,2-3.33,1.8-5.2 c-0.29-2.64-1.16-4.97-1.98-7.47c-0.5-1.54,0.7-1.87,1.83-2.64c1.09-0.73,2.12-1.54,3.09-2.42c1.41-1.28,4.24-3.58,3.84-5.73 c-0.45-2.42-4.05-2.66-6-2.93c-1.34-0.19-2.68-0.26-4.03-0.24C8.93-7.54,6.7-6.89,6.38-8.33z" fill="#fff291"></path>
<animateTransform values="-10;10;-10" begin="-0.46248121170077466s" keySplines="0.4 0 0.6 1;0.4 0 0.6 1" calcMode="spline" keyTimes="0;0.5;1" repeatCount="indefinite" dur="0.6451612903225806s" type="rotate" attributeName="transform"></animateTransform>
</g>
</g><g transform="translate(1543.7429804202495 458.29782350343186) rotate(172.13704565716205) scale(0.18485068166915036)">
<g>
<path d="M6.38-8.33C5.84-10.74,5-13.08,3.83-15.26c-0.85-1.58-1.98-4.16-4.16-3.86c-1.93,0.26-3.02,2.91-3.79,4.44 c-0.51,1-0.95,2.03-1.32,3.09c-0.37,1.06-0.47,2.86-1.16,3.72c-0.67,0.83-2.16,0.35-3.08,0.33c-1.36-0.03-2.71,0.04-4.06,0.21 c-1.72,0.22-4.81,0.42-5.85,2.03c-1.25,1.94,0.7,3.8,1.93,5.13c1.68,1.82,3.6,3.27,5.67,4.62c1.14,0.74,1.08,1.25,0.59,2.47 c-0.51,1.28-0.93,2.59-1.25,3.92c-0.44,1.86-1.34,5.14-0.4,6.93c1.16,2.23,3.65,1.11,5.37,0.35c2.37-1.05,4.49-2.47,6.49-4.1 c1.2-0.97,1.67-0.56,2.78,0.35c1.06,0.86,2.17,1.65,3.35,2.35c1.59,0.95,4.49,2.84,6.43,2.36c2.4-0.58,2-3.33,1.8-5.2 c-0.29-2.64-1.16-4.97-1.98-7.47c-0.5-1.54,0.7-1.87,1.83-2.64c1.09-0.73,2.12-1.54,3.09-2.42c1.41-1.28,4.24-3.58,3.84-5.73 c-0.45-2.42-4.05-2.66-6-2.93c-1.34-0.19-2.68-0.26-4.03-0.24C8.93-7.54,6.7-6.89,6.38-8.33z" fill="#00ceff"></path>
<animateTransform values="-10;10;-10" begin="-0.48098046016880563s" keySplines="0.4 0 0.6 1;0.4 0 0.6 1" calcMode="spline" keyTimes="0;0.5;1" repeatCount="indefinite" dur="0.6451612903225806s" type="rotate" attributeName="transform"></animateTransform>
</g>
</g><g transform="translate(1596.9358590733036 54.93398605280091) rotate(270.78767830718914) scale(0.22542172575246142)">
<g>
<path d="M6.38-8.33C5.84-10.74,5-13.08,3.83-15.26c-0.85-1.58-1.98-4.16-4.16-3.86c-1.93,0.26-3.02,2.91-3.79,4.44 c-0.51,1-0.95,2.03-1.32,3.09c-0.37,1.06-0.47,2.86-1.16,3.72c-0.67,0.83-2.16,0.35-3.08,0.33c-1.36-0.03-2.71,0.04-4.06,0.21 c-1.72,0.22-4.81,0.42-5.85,2.03c-1.25,1.94,0.7,3.8,1.93,5.13c1.68,1.82,3.6,3.27,5.67,4.62c1.14,0.74,1.08,1.25,0.59,2.47 c-0.51,1.28-0.93,2.59-1.25,3.92c-0.44,1.86-1.34,5.14-0.4,6.93c1.16,2.23,3.65,1.11,5.37,0.35c2.37-1.05,4.49-2.47,6.49-4.1 c1.2-0.97,1.67-0.56,2.78,0.35c1.06,0.86,2.17,1.65,3.35,2.35c1.59,0.95,4.49,2.84,6.43,2.36c2.4-0.58,2-3.33,1.8-5.2 c-0.29-2.64-1.16-4.97-1.98-7.47c-0.5-1.54,0.7-1.87,1.83-2.64c1.09-0.73,2.12-1.54,3.09-2.42c1.41-1.28,4.24-3.58,3.84-5.73 c-0.45-2.42-4.05-2.66-6-2.93c-1.34-0.19-2.68-0.26-4.03-0.24C8.93-7.54,6.7-6.89,6.38-8.33z" fill="#fff291"></path>
<animateTransform values="-10;10;-10" begin="-0.4994797086368366s" keySplines="0.4 0 0.6 1;0.4 0 0.6 1" calcMode="spline" keyTimes="0;0.5;1" repeatCount="indefinite" dur="0.6451612903225806s" type="rotate" attributeName="transform"></animateTransform>
</g>
</g><g transform="translate(1559.2208119568581 264.74317843742983) rotate(153.41598926499643) scale(0.19446336415371854)">
<g>
<path d="M6.38-8.33C5.84-10.74,5-13.08,3.83-15.26c-0.85-1.58-1.98-4.16-4.16-3.86c-1.93,0.26-3.02,2.91-3.79,4.44 c-0.51,1-0.95,2.03-1.32,3.09c-0.37,1.06-0.47,2.86-1.16,3.72c-0.67,0.83-2.16,0.35-3.08,0.33c-1.36-0.03-2.71,0.04-4.06,0.21 c-1.72,0.22-4.81,0.42-5.85,2.03c-1.25,1.94,0.7,3.8,1.93,5.13c1.68,1.82,3.6,3.27,5.67,4.62c1.14,0.74,1.08,1.25,0.59,2.47 c-0.51,1.28-0.93,2.59-1.25,3.92c-0.44,1.86-1.34,5.14-0.4,6.93c1.16,2.23,3.65,1.11,5.37,0.35c2.37-1.05,4.49-2.47,6.49-4.1 c1.2-0.97,1.67-0.56,2.78,0.35c1.06,0.86,2.17,1.65,3.35,2.35c1.59,0.95,4.49,2.84,6.43,2.36c2.4-0.58,2-3.33,1.8-5.2 c-0.29-2.64-1.16-4.97-1.98-7.47c-0.5-1.54,0.7-1.87,1.83-2.64c1.09-0.73,2.12-1.54,3.09-2.42c1.41-1.28,4.24-3.58,3.84-5.73 c-0.45-2.42-4.05-2.66-6-2.93c-1.34-0.19-2.68-0.26-4.03-0.24C8.93-7.54,6.7-6.89,6.38-8.33z" fill="#00ceff"></path>
<animateTransform values="-10;10;-10" begin="-0.5179789571048675s" keySplines="0.4 0 0.6 1;0.4 0 0.6 1" calcMode="spline" keyTimes="0;0.5;1" repeatCount="indefinite" dur="0.6451612903225806s" type="rotate" attributeName="transform"></animateTransform>
</g>
</g><g transform="translate(1220.2359221155625 926.6655907079032) rotate(178.56987513221574) scale(0.22926758047382687)">
<g>
<path d="M6.38-8.33C5.84-10.74,5-13.08,3.83-15.26c-0.85-1.58-1.98-4.16-4.16-3.86c-1.93,0.26-3.02,2.91-3.79,4.44 c-0.51,1-0.95,2.03-1.32,3.09c-0.37,1.06-0.47,2.86-1.16,3.72c-0.67,0.83-2.16,0.35-3.08,0.33c-1.36-0.03-2.71,0.04-4.06,0.21 c-1.72,0.22-4.81,0.42-5.85,2.03c-1.25,1.94,0.7,3.8,1.93,5.13c1.68,1.82,3.6,3.27,5.67,4.62c1.14,0.74,1.08,1.25,0.59,2.47 c-0.51,1.28-0.93,2.59-1.25,3.92c-0.44,1.86-1.34,5.14-0.4,6.93c1.16,2.23,3.65,1.11,5.37,0.35c2.37-1.05,4.49-2.47,6.49-4.1 c1.2-0.97,1.67-0.56,2.78,0.35c1.06,0.86,2.17,1.65,3.35,2.35c1.59,0.95,4.49,2.84,6.43,2.36c2.4-0.58,2-3.33,1.8-5.2 c-0.29-2.64-1.16-4.97-1.98-7.47c-0.5-1.54,0.7-1.87,1.83-2.64c1.09-0.73,2.12-1.54,3.09-2.42c1.41-1.28,4.24-3.58,3.84-5.73 c-0.45-2.42-4.05-2.66-6-2.93c-1.34-0.19-2.68-0.26-4.03-0.24C8.93-7.54,6.7-6.89,6.38-8.33z" fill="#fff291"></path>
<animateTransform values="-10;10;-10" begin="-0.5364782055728986s" keySplines="0.4 0 0.6 1;0.4 0 0.6 1" calcMode="spline" keyTimes="0;0.5;1" repeatCount="indefinite" dur="0.6451612903225806s" type="rotate" attributeName="transform"></animateTransform>
</g>
</g><g transform="translate(1088.2159700411682 564.7606223871471) rotate(325.7258487567501) scale(0.21866164850151296)">
<g>
<path d="M6.38-8.33C5.84-10.74,5-13.08,3.83-15.26c-0.85-1.58-1.98-4.16-4.16-3.86c-1.93,0.26-3.02,2.91-3.79,4.44 c-0.51,1-0.95,2.03-1.32,3.09c-0.37,1.06-0.47,2.86-1.16,3.72c-0.67,0.83-2.16,0.35-3.08,0.33c-1.36-0.03-2.71,0.04-4.06,0.21 c-1.72,0.22-4.81,0.42-5.85,2.03c-1.25,1.94,0.7,3.8,1.93,5.13c1.68,1.82,3.6,3.27,5.67,4.62c1.14,0.74,1.08,1.25,0.59,2.47 c-0.51,1.28-0.93,2.59-1.25,3.92c-0.44,1.86-1.34,5.14-0.4,6.93c1.16,2.23,3.65,1.11,5.37,0.35c2.37-1.05,4.49-2.47,6.49-4.1 c1.2-0.97,1.67-0.56,2.78,0.35c1.06,0.86,2.17,1.65,3.35,2.35c1.59,0.95,4.49,2.84,6.43,2.36c2.4-0.58,2-3.33,1.8-5.2 c-0.29-2.64-1.16-4.97-1.98-7.47c-0.5-1.54,0.7-1.87,1.83-2.64c1.09-0.73,2.12-1.54,3.09-2.42c1.41-1.28,4.24-3.58,3.84-5.73 c-0.45-2.42-4.05-2.66-6-2.93c-1.34-0.19-2.68-0.26-4.03-0.24C8.93-7.54,6.7-6.89,6.38-8.33z" fill="#fff291"></path>
<animateTransform values="-10;10;-10" begin="-0.5549774540409296s" keySplines="0.4 0 0.6 1;0.4 0 0.6 1" calcMode="spline" keyTimes="0;0.5;1" repeatCount="indefinite" dur="0.6451612903225806s" type="rotate" attributeName="transform"></animateTransform>
</g>
</g><g transform="translate(802.5609078453755 6.782712534352532) rotate(288.0032563296515) scale(0.2316112637505892)">
<g>
<path d="M6.38-8.33C5.84-10.74,5-13.08,3.83-15.26c-0.85-1.58-1.98-4.16-4.16-3.86c-1.93,0.26-3.02,2.91-3.79,4.44 c-0.51,1-0.95,2.03-1.32,3.09c-0.37,1.06-0.47,2.86-1.16,3.72c-0.67,0.83-2.16,0.35-3.08,0.33c-1.36-0.03-2.71,0.04-4.06,0.21 c-1.72,0.22-4.81,0.42-5.85,2.03c-1.25,1.94,0.7,3.8,1.93,5.13c1.68,1.82,3.6,3.27,5.67,4.62c1.14,0.74,1.08,1.25,0.59,2.47 c-0.51,1.28-0.93,2.59-1.25,3.92c-0.44,1.86-1.34,5.14-0.4,6.93c1.16,2.23,3.65,1.11,5.37,0.35c2.37-1.05,4.49-2.47,6.49-4.1 c1.2-0.97,1.67-0.56,2.78,0.35c1.06,0.86,2.17,1.65,3.35,2.35c1.59,0.95,4.49,2.84,6.43,2.36c2.4-0.58,2-3.33,1.8-5.2 c-0.29-2.64-1.16-4.97-1.98-7.47c-0.5-1.54,0.7-1.87,1.83-2.64c1.09-0.73,2.12-1.54,3.09-2.42c1.41-1.28,4.24-3.58,3.84-5.73 c-0.45-2.42-4.05-2.66-6-2.93c-1.34-0.19-2.68-0.26-4.03-0.24C8.93-7.54,6.7-6.89,6.38-8.33z" fill="#fff291"></path>
<animateTransform values="-10;10;-10" begin="-0.5734767025089605s" keySplines="0.4 0 0.6 1;0.4 0 0.6 1" calcMode="spline" keyTimes="0;0.5;1" repeatCount="indefinite" dur="0.6451612903225806s" type="rotate" attributeName="transform"></animateTransform>
</g>
</g><g transform="translate(260.4572751956143 950.2986975499776) rotate(41.24133995435293) scale(0.234153713843483)">
<g>
<path d="M6.38-8.33C5.84-10.74,5-13.08,3.83-15.26c-0.85-1.58-1.98-4.16-4.16-3.86c-1.93,0.26-3.02,2.91-3.79,4.44 c-0.51,1-0.95,2.03-1.32,3.09c-0.37,1.06-0.47,2.86-1.16,3.72c-0.67,0.83-2.16,0.35-3.08,0.33c-1.36-0.03-2.71,0.04-4.06,0.21 c-1.72,0.22-4.81,0.42-5.85,2.03c-1.25,1.94,0.7,3.8,1.93,5.13c1.68,1.82,3.6,3.27,5.67,4.62c1.14,0.74,1.08,1.25,0.59,2.47 c-0.51,1.28-0.93,2.59-1.25,3.92c-0.44,1.86-1.34,5.14-0.4,6.93c1.16,2.23,3.65,1.11,5.37,0.35c2.37-1.05,4.49-2.47,6.49-4.1 c1.2-0.97,1.67-0.56,2.78,0.35c1.06,0.86,2.17,1.65,3.35,2.35c1.59,0.95,4.49,2.84,6.43,2.36c2.4-0.58,2-3.33,1.8-5.2 c-0.29-2.64-1.16-4.97-1.98-7.47c-0.5-1.54,0.7-1.87,1.83-2.64c1.09-0.73,2.12-1.54,3.09-2.42c1.41-1.28,4.24-3.58,3.84-5.73 c-0.45-2.42-4.05-2.66-6-2.93c-1.34-0.19-2.68-0.26-4.03-0.24C8.93-7.54,6.7-6.89,6.38-8.33z" fill="#fff291"></path>
<animateTransform values="-10;10;-10" begin="-0.5919759509769915s" keySplines="0.4 0 0.6 1;0.4 0 0.6 1" calcMode="spline" keyTimes="0;0.5;1" repeatCount="indefinite" dur="0.6451612903225806s" type="rotate" attributeName="transform"></animateTransform>
</g>
</g><g transform="translate(1916.8590468100233 767.30441815728) rotate(176.1463713910773) scale(0.18484206805991318)">
<g>
<path d="M6.38-8.33C5.84-10.74,5-13.08,3.83-15.26c-0.85-1.58-1.98-4.16-4.16-3.86c-1.93,0.26-3.02,2.91-3.79,4.44 c-0.51,1-0.95,2.03-1.32,3.09c-0.37,1.06-0.47,2.86-1.16,3.72c-0.67,0.83-2.16,0.35-3.08,0.33c-1.36-0.03-2.71,0.04-4.06,0.21 c-1.72,0.22-4.81,0.42-5.85,2.03c-1.25,1.94,0.7,3.8,1.93,5.13c1.68,1.82,3.6,3.27,5.67,4.62c1.14,0.74,1.08,1.25,0.59,2.47 c-0.51,1.28-0.93,2.59-1.25,3.92c-0.44,1.86-1.34,5.14-0.4,6.93c1.16,2.23,3.65,1.11,5.37,0.35c2.37-1.05,4.49-2.47,6.49-4.1 c1.2-0.97,1.67-0.56,2.78,0.35c1.06,0.86,2.17,1.65,3.35,2.35c1.59,0.95,4.49,2.84,6.43,2.36c2.4-0.58,2-3.33,1.8-5.2 c-0.29-2.64-1.16-4.97-1.98-7.47c-0.5-1.54,0.7-1.87,1.83-2.64c1.09-0.73,2.12-1.54,3.09-2.42c1.41-1.28,4.24-3.58,3.84-5.73 c-0.45-2.42-4.05-2.66-6-2.93c-1.34-0.19-2.68-0.26-4.03-0.24C8.93-7.54,6.7-6.89,6.38-8.33z" fill="#00ceff"></path>
<animateTransform values="-10;10;-10" begin="-0.6104751994450225s" keySplines="0.4 0 0.6 1;0.4 0 0.6 1" calcMode="spline" keyTimes="0;0.5;1" repeatCount="indefinite" dur="0.6451612903225806s" type="rotate" attributeName="transform"></animateTransform>
</g>
</g><g transform="translate(1652.2385346345327 35.550643585657156) rotate(70.31818305209919) scale(0.19349118963457593)">
<g>
<path d="M6.38-8.33C5.84-10.74,5-13.08,3.83-15.26c-0.85-1.58-1.98-4.16-4.16-3.86c-1.93,0.26-3.02,2.91-3.79,4.44 c-0.51,1-0.95,2.03-1.32,3.09c-0.37,1.06-0.47,2.86-1.16,3.72c-0.67,0.83-2.16,0.35-3.08,0.33c-1.36-0.03-2.71,0.04-4.06,0.21 c-1.72,0.22-4.81,0.42-5.85,2.03c-1.25,1.94,0.7,3.8,1.93,5.13c1.68,1.82,3.6,3.27,5.67,4.62c1.14,0.74,1.08,1.25,0.59,2.47 c-0.51,1.28-0.93,2.59-1.25,3.92c-0.44,1.86-1.34,5.14-0.4,6.93c1.16,2.23,3.65,1.11,5.37,0.35c2.37-1.05,4.49-2.47,6.49-4.1 c1.2-0.97,1.67-0.56,2.78,0.35c1.06,0.86,2.17,1.65,3.35,2.35c1.59,0.95,4.49,2.84,6.43,2.36c2.4-0.58,2-3.33,1.8-5.2 c-0.29-2.64-1.16-4.97-1.98-7.47c-0.5-1.54,0.7-1.87,1.83-2.64c1.09-0.73,2.12-1.54,3.09-2.42c1.41-1.28,4.24-3.58,3.84-5.73 c-0.45-2.42-4.05-2.66-6-2.93c-1.34-0.19-2.68-0.26-4.03-0.24C8.93-7.54,6.7-6.89,6.38-8.33z" fill="#fff291"></path>
<animateTransform values="-10;10;-10" begin="-0.6289744479130535s" keySplines="0.4 0 0.6 1;0.4 0 0.6 1" calcMode="spline" keyTimes="0;0.5;1" repeatCount="indefinite" dur="0.6451612903225806s" type="rotate" attributeName="transform"></animateTransform>
</g>
</g><g transform="translate(1458.4604450248057 645.6832582672207) rotate(133.89902613481317) scale(0.2688081954391322)">
<g>
<path d="M6.38-8.33C5.84-10.74,5-13.08,3.83-15.26c-0.85-1.58-1.98-4.16-4.16-3.86c-1.93,0.26-3.02,2.91-3.79,4.44 c-0.51,1-0.95,2.03-1.32,3.09c-0.37,1.06-0.47,2.86-1.16,3.72c-0.67,0.83-2.16,0.35-3.08,0.33c-1.36-0.03-2.71,0.04-4.06,0.21 c-1.72,0.22-4.81,0.42-5.85,2.03c-1.25,1.94,0.7,3.8,1.93,5.13c1.68,1.82,3.6,3.27,5.67,4.62c1.14,0.74,1.08,1.25,0.59,2.47 c-0.51,1.28-0.93,2.59-1.25,3.92c-0.44,1.86-1.34,5.14-0.4,6.93c1.16,2.23,3.65,1.11,5.37,0.35c2.37-1.05,4.49-2.47,6.49-4.1 c1.2-0.97,1.67-0.56,2.78,0.35c1.06,0.86,2.17,1.65,3.35,2.35c1.59,0.95,4.49,2.84,6.43,2.36c2.4-0.58,2-3.33,1.8-5.2 c-0.29-2.64-1.16-4.97-1.98-7.47c-0.5-1.54,0.7-1.87,1.83-2.64c1.09-0.73,2.12-1.54,3.09-2.42c1.41-1.28,4.24-3.58,3.84-5.73 c-0.45-2.42-4.05-2.66-6-2.93c-1.34-0.19-2.68-0.26-4.03-0.24C8.93-7.54,6.7-6.89,6.38-8.33z" fill="#00ceff"></path>
<animateTransform values="-10;10;-10" begin="-0.6474736963810844s" keySplines="0.4 0 0.6 1;0.4 0 0.6 1" calcMode="spline" keyTimes="0;0.5;1" repeatCount="indefinite" dur="0.6451612903225806s" type="rotate" attributeName="transform"></animateTransform>
</g>
</g><g transform="translate(399.87923507974944 840.0388916917693) rotate(285.8920313001852) scale(0.21435146684131634)">
<g>
<path d="M6.38-8.33C5.84-10.74,5-13.08,3.83-15.26c-0.85-1.58-1.98-4.16-4.16-3.86c-1.93,0.26-3.02,2.91-3.79,4.44 c-0.51,1-0.95,2.03-1.32,3.09c-0.37,1.06-0.47,2.86-1.16,3.72c-0.67,0.83-2.16,0.35-3.08,0.33c-1.36-0.03-2.71,0.04-4.06,0.21 c-1.72,0.22-4.81,0.42-5.85,2.03c-1.25,1.94,0.7,3.8,1.93,5.13c1.68,1.82,3.6,3.27,5.67,4.62c1.14,0.74,1.08,1.25,0.59,2.47 c-0.51,1.28-0.93,2.59-1.25,3.92c-0.44,1.86-1.34,5.14-0.4,6.93c1.16,2.23,3.65,1.11,5.37,0.35c2.37-1.05,4.49-2.47,6.49-4.1 c1.2-0.97,1.67-0.56,2.78,0.35c1.06,0.86,2.17,1.65,3.35,2.35c1.59,0.95,4.49,2.84,6.43,2.36c2.4-0.58,2-3.33,1.8-5.2 c-0.29-2.64-1.16-4.97-1.98-7.47c-0.5-1.54,0.7-1.87,1.83-2.64c1.09-0.73,2.12-1.54,3.09-2.42c1.41-1.28,4.24-3.58,3.84-5.73 c-0.45-2.42-4.05-2.66-6-2.93c-1.34-0.19-2.68-0.26-4.03-0.24C8.93-7.54,6.7-6.89,6.38-8.33z" fill="#00ceff"></path>
<animateTransform values="-10;10;-10" begin="-0.6659729448491155s" keySplines="0.4 0 0.6 1;0.4 0 0.6 1" calcMode="spline" keyTimes="0;0.5;1" repeatCount="indefinite" dur="0.6451612903225806s" type="rotate" attributeName="transform"></animateTransform>
</g>
</g><g transform="translate(769.1245569987927 712.6461448689107) rotate(20.467754968994605) scale(0.2552888021235625)">
<g>
<path d="M6.38-8.33C5.84-10.74,5-13.08,3.83-15.26c-0.85-1.58-1.98-4.16-4.16-3.86c-1.93,0.26-3.02,2.91-3.79,4.44 c-0.51,1-0.95,2.03-1.32,3.09c-0.37,1.06-0.47,2.86-1.16,3.72c-0.67,0.83-2.16,0.35-3.08,0.33c-1.36-0.03-2.71,0.04-4.06,0.21 c-1.72,0.22-4.81,0.42-5.85,2.03c-1.25,1.94,0.7,3.8,1.93,5.13c1.68,1.82,3.6,3.27,5.67,4.62c1.14,0.74,1.08,1.25,0.59,2.47 c-0.51,1.28-0.93,2.59-1.25,3.92c-0.44,1.86-1.34,5.14-0.4,6.93c1.16,2.23,3.65,1.11,5.37,0.35c2.37-1.05,4.49-2.47,6.49-4.1 c1.2-0.97,1.67-0.56,2.78,0.35c1.06,0.86,2.17,1.65,3.35,2.35c1.59,0.95,4.49,2.84,6.43,2.36c2.4-0.58,2-3.33,1.8-5.2 c-0.29-2.64-1.16-4.97-1.98-7.47c-0.5-1.54,0.7-1.87,1.83-2.64c1.09-0.73,2.12-1.54,3.09-2.42c1.41-1.28,4.24-3.58,3.84-5.73 c-0.45-2.42-4.05-2.66-6-2.93c-1.34-0.19-2.68-0.26-4.03-0.24C8.93-7.54,6.7-6.89,6.38-8.33z" fill="#fff291"></path>
<animateTransform values="-10;10;-10" begin="-0.6844721933171465s" keySplines="0.4 0 0.6 1;0.4 0 0.6 1" calcMode="spline" keyTimes="0;0.5;1" repeatCount="indefinite" dur="0.6451612903225806s" type="rotate" attributeName="transform"></animateTransform>
</g>
</g><g transform="translate(2020.4122184258758 663.1723881125992) rotate(72.84229772251115) scale(0.20408476786666707)">
<circle fill="#fff291" r="5" cy="0" cx="0"></circle>
<animate values="1;0.5;1" begin="-0.17574286044629436s" keySplines="0.2 0 0.8 1;0.2 0 0.8 1" calcMode="spline" keyTimes="0;0.5;1" repeatCount="indefinite" dur="0.6451612903225806s" attributeName="opacity"></animate>
</g><g transform="translate(660.290899965375 514.3225062573238) rotate(231.7887583278433) scale(0.21898838113590738)">
<circle fill="#fff291" r="5" cy="0" cx="0"></circle>
<animate values="1;0.5;1" begin="-0.1803676725633021s" keySplines="0.2 0 0.8 1;0.2 0 0.8 1" calcMode="spline" keyTimes="0;0.5;1" repeatCount="indefinite" dur="0.6451612903225806s" attributeName="opacity"></animate>
</g><g transform="translate(340.325808632009 118.31339422674229) rotate(186.23215074161965) scale(0.19219086953122674)">
<circle fill="#fff291" r="5" cy="0" cx="0"></circle>
<animate values="1;0.5;1" begin="-0.18499248468030985s" keySplines="0.2 0 0.8 1;0.2 0 0.8 1" calcMode="spline" keyTimes="0;0.5;1" repeatCount="indefinite" dur="0.6451612903225806s" attributeName="opacity"></animate>
</g><g transform="translate(1599.518660856145 10.89813733178325) rotate(54.12716636615444) scale(0.26170742701088107)">
<circle fill="#fff291" r="5" cy="0" cx="0"></circle>
<animate values="1;0.5;1" begin="-0.1896172967973176s" keySplines="0.2 0 0.8 1;0.2 0 0.8 1" calcMode="spline" keyTimes="0;0.5;1" repeatCount="indefinite" dur="0.6451612903225806s" attributeName="opacity"></animate>
</g><g transform="translate(481.6427562358948 846.1982738397883) rotate(200.7924934694469) scale(0.25433039842539273)">
<circle fill="#fff291" r="5" cy="0" cx="0"></circle>
<animate values="1;0.5;1" begin="-0.19424210891432536s" keySplines="0.2 0 0.8 1;0.2 0 0.8 1" calcMode="spline" keyTimes="0;0.5;1" repeatCount="indefinite" dur="0.6451612903225806s" attributeName="opacity"></animate>
</g><g transform="translate(1216.8900185401783 292.1363642721524) rotate(293.5956638294267) scale(0.24679368750265704)">
<circle fill="#fff291" r="5" cy="0" cx="0"></circle>
<animate values="1;0.5;1" begin="-0.1988669210313331s" keySplines="0.2 0 0.8 1;0.2 0 0.8 1" calcMode="spline" keyTimes="0;0.5;1" repeatCount="indefinite" dur="0.6451612903225806s" attributeName="opacity"></animate>
</g><g transform="translate(1609.219315600468 492.9282864511439) rotate(151.6522102659815) scale(0.2689320476208135)">
<circle fill="#fff291" r="5" cy="0" cx="0"></circle>
<animate values="1;0.5;1" begin="-0.20349173314834085s" keySplines="0.2 0 0.8 1;0.2 0 0.8 1" calcMode="spline" keyTimes="0;0.5;1" repeatCount="indefinite" dur="0.6451612903225806s" attributeName="opacity"></animate>
</g><g transform="translate(11.493706251798255 907.7243228208762) rotate(234.4305308196673) scale(0.20271430997835274)">
<circle fill="#fff291" r="5" cy="0" cx="0"></circle>
<animate values="1;0.5;1" begin="-0.2081165452653486s" keySplines="0.2 0 0.8 1;0.2 0 0.8 1" calcMode="spline" keyTimes="0;0.5;1" repeatCount="indefinite" dur="0.6451612903225806s" attributeName="opacity"></animate>
</g><g transform="translate(96.93523599672875 524.796789506832) rotate(331.92538295113684) scale(0.21867695592822514)">
<circle fill="#00ceff" r="5" cy="0" cx="0"></circle>
<animate values="1;0.5;1" begin="-0.21274135738235633s" keySplines="0.2 0 0.8 1;0.2 0 0.8 1" calcMode="spline" keyTimes="0;0.5;1" repeatCount="indefinite" dur="0.6451612903225806s" attributeName="opacity"></animate>
</g><g transform="translate(1989.9889266789105 239.75941150552808) rotate(349.8377705179599) scale(0.23372321925769118)">
<circle fill="#00ceff" r="5" cy="0" cx="0"></circle>
<animate values="1;0.5;1" begin="-0.21736616949936408s" keySplines="0.2 0 0.8 1;0.2 0 0.8 1" calcMode="spline" keyTimes="0;0.5;1" repeatCount="indefinite" dur="0.6451612903225806s" attributeName="opacity"></animate>
</g><g transform="translate(1742.6580423053774 307.12022553639474) rotate(219.0512502012727) scale(0.2346001796343981)">
<circle fill="#00ceff" r="5" cy="0" cx="0"></circle>
<animate values="1;0.5;1" begin="-0.22199098161637185s" keySplines="0.2 0 0.8 1;0.2 0 0.8 1" calcMode="spline" keyTimes="0;0.5;1" repeatCount="indefinite" dur="0.6451612903225806s" attributeName="opacity"></animate>
</g><g transform="translate(259.87037978352976 144.15350744800818) rotate(136.20924163731922) scale(0.1931693745732406)">
<circle fill="#00ceff" r="5" cy="0" cx="0"></circle>
<animate values="1;0.5;1" begin="-0.2266157937333796s" keySplines="0.2 0 0.8 1;0.2 0 0.8 1" calcMode="spline" keyTimes="0;0.5;1" repeatCount="indefinite" dur="0.6451612903225806s" attributeName="opacity"></animate>
</g><g transform="translate(1709.323503448657 53.439039078608474) rotate(89.7843299146259) scale(0.2617515828148607)">
<circle fill="#fff291" r="5" cy="0" cx="0"></circle>
<animate values="1;0.5;1" begin="-0.23124060585038733s" keySplines="0.2 0 0.8 1;0.2 0 0.8 1" calcMode="spline" keyTimes="0;0.5;1" repeatCount="indefinite" dur="0.6451612903225806s" attributeName="opacity"></animate>
</g><g transform="translate(1607.6225055230248 596.8352246416447) rotate(237.79889416395204) scale(0.24532187018291807)">
<circle fill="#00ceff" r="5" cy="0" cx="0"></circle>
<animate values="1;0.5;1" begin="-0.23586541796739505s" keySplines="0.2 0 0.8 1;0.2 0 0.8 1" calcMode="spline" keyTimes="0;0.5;1" repeatCount="indefinite" dur="0.6451612903225806s" attributeName="opacity"></animate>
</g><g transform="translate(1706.960057662336 480.42897494250536) rotate(335.46948780518204) scale(0.20190193389127814)">
<circle fill="#00ceff" r="5" cy="0" cx="0"></circle>
<animate values="1;0.5;1" begin="-0.24049023008440282s" keySplines="0.2 0 0.8 1;0.2 0 0.8 1" calcMode="spline" keyTimes="0;0.5;1" repeatCount="indefinite" dur="0.6451612903225806s" attributeName="opacity"></animate>
</g><g transform="translate(620.6786996388322 818.2106270222315) rotate(139.7802984236347) scale(0.19924563412951682)">
<circle fill="#00ceff" r="5" cy="0" cx="0"></circle>
<animate values="1;0.5;1" begin="-0.2451150422014106s" keySplines="0.2 0 0.8 1;0.2 0 0.8 1" calcMode="spline" keyTimes="0;0.5;1" repeatCount="indefinite" dur="0.6451612903225806s" attributeName="opacity"></animate>
</g><g transform="translate(1920.981900568857 17.689032816977246) rotate(20.379342930569468) scale(0.1872877583480193)">
<circle fill="#fff291" r="5" cy="0" cx="0"></circle>
<animate values="1;0.5;1" begin="-0.2497398543184183s" keySplines="0.2 0 0.8 1;0.2 0 0.8 1" calcMode="spline" keyTimes="0;0.5;1" repeatCount="indefinite" dur="0.6451612903225806s" attributeName="opacity"></animate>
</g><g transform="translate(504.2787583373108 571.6149415554439) rotate(128.41791263033053) scale(0.24768416297100065)">
<circle fill="#fff291" r="5" cy="0" cx="0"></circle>
<animate values="1;0.5;1" begin="-0.25436466643542605s" keySplines="0.2 0 0.8 1;0.2 0 0.8 1" calcMode="spline" keyTimes="0;0.5;1" repeatCount="indefinite" dur="0.6451612903225806s" attributeName="opacity"></animate>
</g><g transform="translate(201.21772391408743 115.1095387223397) rotate(46.005639475896295) scale(0.2347703767583412)">
<circle fill="#00ceff" r="5" cy="0" cx="0"></circle>
<animate values="1;0.5;1" begin="-0.25898947855243376s" keySplines="0.2 0 0.8 1;0.2 0 0.8 1" calcMode="spline" keyTimes="0;0.5;1" repeatCount="indefinite" dur="0.6451612903225806s" attributeName="opacity"></animate>
</g><g transform="translate(971.3997254579564 663.8313851668722) rotate(63.42994199842025) scale(0.27126234294615664)">
<circle fill="#00ceff" r="5" cy="0" cx="0"></circle>
<animate values="1;0.5;1" begin="-0.26361429066944153s" keySplines="0.2 0 0.8 1;0.2 0 0.8 1" calcMode="spline" keyTimes="0;0.5;1" repeatCount="indefinite" dur="0.6451612903225806s" attributeName="opacity"></animate>
</g><g transform="translate(365.96529382890236 318.05992475154085) rotate(2.8759977329259216) scale(0.2122953289482994)">
<circle fill="#fff291" r="5" cy="0" cx="0"></circle>
<animate values="1;0.5;1" begin="-0.2682391027864493s" keySplines="0.2 0 0.8 1;0.2 0 0.8 1" calcMode="spline" keyTimes="0;0.5;1" repeatCount="indefinite" dur="0.6451612903225806s" attributeName="opacity"></animate>
</g><g transform="translate(1205.1143269007223 144.82963330921356) rotate(270.8228589372803) scale(0.19081377179865103)">
<circle fill="#fff291" r="5" cy="0" cx="0"></circle>
<animate values="1;0.5;1" begin="-0.272863914903457s" keySplines="0.2 0 0.8 1;0.2 0 0.8 1" calcMode="spline" keyTimes="0;0.5;1" repeatCount="indefinite" dur="0.6451612903225806s" attributeName="opacity"></animate>
</g><g transform="translate(1860.6253770321985 891.0654299932143) rotate(6.566527233241014) scale(0.2639841585309718)">
<circle fill="#fff291" r="5" cy="0" cx="0"></circle>
<animate values="1;0.5;1" begin="-0.2774887270204648s" keySplines="0.2 0 0.8 1;0.2 0 0.8 1" calcMode="spline" keyTimes="0;0.5;1" repeatCount="indefinite" dur="0.6451612903225806s" attributeName="opacity"></animate>
</g><g transform="translate(898.7171939620393 475.9484565986176) rotate(233.83444014968774) scale(0.26862991358803917)">
<circle fill="#fff291" r="5" cy="0" cx="0"></circle>
<animate values="1;0.5;1" begin="-0.2821135391374725s" keySplines="0.2 0 0.8 1;0.2 0 0.8 1" calcMode="spline" keyTimes="0;0.5;1" repeatCount="indefinite" dur="0.6451612903225806s" attributeName="opacity"></animate>
</g><g transform="translate(477.458342665233 54.20992154537878) rotate(0.5925979935363701) scale(0.23048026186613235)">
<circle fill="#fff291" r="5" cy="0" cx="0"></circle>
<animate values="1;0.5;1" begin="-0.2867383512544803s" keySplines="0.2 0 0.8 1;0.2 0 0.8 1" calcMode="spline" keyTimes="0;0.5;1" repeatCount="indefinite" dur="0.6451612903225806s" attributeName="opacity"></animate>
</g><g transform="translate(1996.904422189689 220.46078133366552) rotate(213.3167089357651) scale(0.2177977609183283)">
<circle fill="#00ceff" r="5" cy="0" cx="0"></circle>
<animate values="1;0.5;1" begin="-0.291363163371488s" keySplines="0.2 0 0.8 1;0.2 0 0.8 1" calcMode="spline" keyTimes="0;0.5;1" repeatCount="indefinite" dur="0.6451612903225806s" attributeName="opacity"></animate>
</g><g transform="translate(1158.4399231316072 179.09749931785208) rotate(250.9744451794303) scale(0.2014863070275083)">
<circle fill="#fff291" r="5" cy="0" cx="0"></circle>
<animate values="1;0.5;1" begin="-0.29598797548849576s" keySplines="0.2 0 0.8 1;0.2 0 0.8 1" calcMode="spline" keyTimes="0;0.5;1" repeatCount="indefinite" dur="0.6451612903225806s" attributeName="opacity"></animate>
</g><g transform="translate(1617.2342741696414 713.4968068010343) rotate(175.71024314816935) scale(0.20734551746512195)">
<circle fill="#fff291" r="5" cy="0" cx="0"></circle>
<animate values="1;0.5;1" begin="-0.30061278760550353s" keySplines="0.2 0 0.8 1;0.2 0 0.8 1" calcMode="spline" keyTimes="0;0.5;1" repeatCount="indefinite" dur="0.6451612903225806s" attributeName="opacity"></animate>
</g><g transform="translate(747.6072569692301 3.7706414667469796) rotate(206.7566431712314) scale(0.2595098958366889)">
<circle fill="#00ceff" r="5" cy="0" cx="0"></circle>
<animate values="1;0.5;1" begin="-0.30523759972251124s" keySplines="0.2 0 0.8 1;0.2 0 0.8 1" calcMode="spline" keyTimes="0;0.5;1" repeatCount="indefinite" dur="0.6451612903225806s" attributeName="opacity"></animate>
</g><g transform="translate(962.9389475582294 92.83436276083883) rotate(203.29180144916558) scale(0.19117328141150616)">
<circle fill="#00ceff" r="5" cy="0" cx="0"></circle>
<animate values="1;0.5;1" begin="-0.309862411839519s" keySplines="0.2 0 0.8 1;0.2 0 0.8 1" calcMode="spline" keyTimes="0;0.5;1" repeatCount="indefinite" dur="0.6451612903225806s" attributeName="opacity"></animate>
</g><g transform="translate(865.9222136757448 597.2227147501818) rotate(117.68738993454659) scale(0.2383978284374561)">
<circle fill="#00ceff" r="5" cy="0" cx="0"></circle>
<animate values="1;0.5;1" begin="-0.31448722395652673s" keySplines="0.2 0 0.8 1;0.2 0 0.8 1" calcMode="spline" keyTimes="0;0.5;1" repeatCount="indefinite" dur="0.6451612903225806s" attributeName="opacity"></animate>
</g><g transform="translate(1838.1615548234804 614.2287209607588) rotate(162.3595887160844) scale(0.1849234347035241)">
<circle fill="#00ceff" r="5" cy="0" cx="0"></circle>
<animate values="1;0.5;1" begin="-0.3191120360735345s" keySplines="0.2 0 0.8 1;0.2 0 0.8 1" calcMode="spline" keyTimes="0;0.5;1" repeatCount="indefinite" dur="0.6451612903225806s" attributeName="opacity"></animate>
</g><g transform="translate(682.6879105238783 30.710255209627096) rotate(311.1582872845833) scale(0.1873443988249484)">
<circle fill="#fff291" r="5" cy="0" cx="0"></circle>
<animate values="1;0.5;1" begin="-0.3237368481905422s" keySplines="0.2 0 0.8 1;0.2 0 0.8 1" calcMode="spline" keyTimes="0;0.5;1" repeatCount="indefinite" dur="0.6451612903225806s" attributeName="opacity"></animate>
</g><g transform="translate(1983.93367530758 210.68388936872077) rotate(116.89048766385277) scale(0.23531936480666502)">
<circle fill="#fff291" r="5" cy="0" cx="0"></circle>
<animate values="1;0.5;1" begin="-0.32836166030755s" keySplines="0.2 0 0.8 1;0.2 0 0.8 1" calcMode="spline" keyTimes="0;0.5;1" repeatCount="indefinite" dur="0.6451612903225806s" attributeName="opacity"></animate>
</g><g transform="translate(1341.4266980781686 463.17267846349847) rotate(312.0778687010767) scale(0.25118639200095105)">
<circle fill="#00ceff" r="5" cy="0" cx="0"></circle>
<animate values="1;0.5;1" begin="-0.33298647242455776s" keySplines="0.2 0 0.8 1;0.2 0 0.8 1" calcMode="spline" keyTimes="0;0.5;1" repeatCount="indefinite" dur="0.6451612903225806s" attributeName="opacity"></animate>
</g><g transform="translate(808.2048407107524 720.0713560259524) rotate(52.670020060471415) scale(0.20845505751946303)">
<circle fill="#fff291" r="5" cy="0" cx="0"></circle>
<animate values="1;0.5;1" begin="-0.33761128454156547s" keySplines="0.2 0 0.8 1;0.2 0 0.8 1" calcMode="spline" keyTimes="0;0.5;1" repeatCount="indefinite" dur="0.6451612903225806s" attributeName="opacity"></animate>
</g><g transform="translate(1538.5538476788295 526.2595139629594) rotate(250.50825409459057) scale(0.22033418646522693)">
<circle fill="#fff291" r="5" cy="0" cx="0"></circle>
<animate values="1;0.5;1" begin="-0.34223609665857324s" keySplines="0.2 0 0.8 1;0.2 0 0.8 1" calcMode="spline" keyTimes="0;0.5;1" repeatCount="indefinite" dur="0.6451612903225806s" attributeName="opacity"></animate>
</g><g transform="translate(1642.1367648328794 669.8190650973718) rotate(203.91385194052438) scale(0.25415491485887554)">
<circle fill="#00ceff" r="5" cy="0" cx="0"></circle>
<animate values="1;0.5;1" begin="-0.34686090877558096s" keySplines="0.2 0 0.8 1;0.2 0 0.8 1" calcMode="spline" keyTimes="0;0.5;1" repeatCount="indefinite" dur="0.6451612903225806s" attributeName="opacity"></animate>
</g><g transform="translate(208.3799361629893 402.9885749080341) rotate(246.50531412888722) scale(0.25686841470638383)">
<circle fill="#fff291" r="5" cy="0" cx="0"></circle>
<animate values="1;0.5;1" begin="-0.3514857208925887s" keySplines="0.2 0 0.8 1;0.2 0 0.8 1" calcMode="spline" keyTimes="0;0.5;1" repeatCount="indefinite" dur="0.6451612903225806s" attributeName="opacity"></animate>
</g><g transform="translate(1806.0336573808654 175.1738881528024) rotate(101.58369004590432) scale(0.25997767467717914)">
<circle fill="#00ceff" r="5" cy="0" cx="0"></circle>
<animate values="1;0.5;1" begin="-0.3561105330095965s" keySplines="0.2 0 0.8 1;0.2 0 0.8 1" calcMode="spline" keyTimes="0;0.5;1" repeatCount="indefinite" dur="0.6451612903225806s" attributeName="opacity"></animate>
</g><g transform="translate(1841.902399821821 938.2978856698248) rotate(293.2875435578491) scale(0.23394982872778233)">
<circle fill="#00ceff" r="5" cy="0" cx="0"></circle>
<animate values="1;0.5;1" begin="-0.3607353451266042s" keySplines="0.2 0 0.8 1;0.2 0 0.8 1" calcMode="spline" keyTimes="0;0.5;1" repeatCount="indefinite" dur="0.6451612903225806s" attributeName="opacity"></animate>
</g><g transform="translate(115.41184871779087 229.57492104443034) rotate(286.27420845674266) scale(0.26169427817150154)">
<circle fill="#00ceff" r="5" cy="0" cx="0"></circle>
<animate values="1;0.5;1" begin="-0.365360157243612s" keySplines="0.2 0 0.8 1;0.2 0 0.8 1" calcMode="spline" keyTimes="0;0.5;1" repeatCount="indefinite" dur="0.6451612903225806s" attributeName="opacity"></animate>
</g><g transform="translate(45.36846537717184 720.3632941115602) rotate(213.86089623371927) scale(0.1859001697545892)">
<circle fill="#fff291" r="5" cy="0" cx="0"></circle>
<animate values="1;0.5;1" begin="-0.3699849693606197s" keySplines="0.2 0 0.8 1;0.2 0 0.8 1" calcMode="spline" keyTimes="0;0.5;1" repeatCount="indefinite" dur="0.6451612903225806s" attributeName="opacity"></animate>
</g><g transform="translate(1236.365776854387 482.06663966347946) rotate(287.5604269725587) scale(0.2769663333196139)">
<circle fill="#00ceff" r="5" cy="0" cx="0"></circle>
<animate values="1;0.5;1" begin="-0.37460978147762747s" keySplines="0.2 0 0.8 1;0.2 0 0.8 1" calcMode="spline" keyTimes="0;0.5;1" repeatCount="indefinite" dur="0.6451612903225806s" attributeName="opacity"></animate>
</g><g transform="translate(1164.1948261090913 477.0461743962607) rotate(206.82484344887712) scale(0.1967412332030144)">
<circle fill="#fff291" r="5" cy="0" cx="0"></circle>
<animate values="1;0.5;1" begin="-0.3792345935946352s" keySplines="0.2 0 0.8 1;0.2 0 0.8 1" calcMode="spline" keyTimes="0;0.5;1" repeatCount="indefinite" dur="0.6451612903225806s" attributeName="opacity"></animate>
</g><g transform="translate(498.2508923748622 510.64521890085854) rotate(311.30419249428786) scale(0.21504863614315978)">
<circle fill="#fff291" r="5" cy="0" cx="0"></circle>
<animate values="1;0.5;1" begin="-0.38385940571164295s" keySplines="0.2 0 0.8 1;0.2 0 0.8 1" calcMode="spline" keyTimes="0;0.5;1" repeatCount="indefinite" dur="0.6451612903225806s" attributeName="opacity"></animate>
</g><g transform="translate(1899.7370444234032 204.9092288022291) rotate(73.97100121603384) scale(0.26426970590010146)">
<circle fill="#00ceff" r="5" cy="0" cx="0"></circle>
<animate values="1;0.5;1" begin="-0.3884842178286507s" keySplines="0.2 0 0.8 1;0.2 0 0.8 1" calcMode="spline" keyTimes="0;0.5;1" repeatCount="indefinite" dur="0.6451612903225806s" attributeName="opacity"></animate>
</g><g transform="translate(520.8463659332297 501.71303045347423) rotate(128.1893984735942) scale(0.22058361477989544)">
<circle fill="#00ceff" r="5" cy="0" cx="0"></circle>
<animate values="1;0.5;1" begin="-0.39310902994565844s" keySplines="0.2 0 0.8 1;0.2 0 0.8 1" calcMode="spline" keyTimes="0;0.5;1" repeatCount="indefinite" dur="0.6451612903225806s" attributeName="opacity"></animate>
</g><g transform="translate(695.6541307476672 859.2839059498835) rotate(8.26183687976144) scale(0.20650674248887707)">
<circle fill="#fff291" r="5" cy="0" cx="0"></circle>
<animate values="1;0.5;1" begin="-0.3977338420626662s" keySplines="0.2 0 0.8 1;0.2 0 0.8 1" calcMode="spline" keyTimes="0;0.5;1" repeatCount="indefinite" dur="0.6451612903225806s" attributeName="opacity"></animate>
</g><g transform="translate(1078.5231796675282 825.0934606685802) rotate(247.7197857196649) scale(0.187156394608114)">
<circle fill="#00ceff" r="5" cy="0" cx="0"></circle>
<animate values="1;0.5;1" begin="-0.4023586541796739s" keySplines="0.2 0 0.8 1;0.2 0 0.8 1" calcMode="spline" keyTimes="0;0.5;1" repeatCount="indefinite" dur="0.6451612903225806s" attributeName="opacity"></animate>
</g><g transform="translate(503.53381758192864 81.95206738229159) rotate(178.9364427554277) scale(0.20056810875487924)">
<circle fill="#fff291" r="5" cy="0" cx="0"></circle>
<animate values="1;0.5;1" begin="-0.4069834662966817s" keySplines="0.2 0 0.8 1;0.2 0 0.8 1" calcMode="spline" keyTimes="0;0.5;1" repeatCount="indefinite" dur="0.6451612903225806s" attributeName="opacity"></animate>
</g><g transform="translate(2010.1934400817981 323.6898092943798) rotate(205.17556488697625) scale(0.19987523915611494)">
<circle fill="#00ceff" r="5" cy="0" cx="0"></circle>
<animate values="1;0.5;1" begin="-0.4116082784136894s" keySplines="0.2 0 0.8 1;0.2 0 0.8 1" calcMode="spline" keyTimes="0;0.5;1" repeatCount="indefinite" dur="0.6451612903225806s" attributeName="opacity"></animate>
</g><g transform="translate(1905.9560783232484 221.57747045838386) rotate(357.34554431167584) scale(0.18910101407741367)">
<circle fill="#00ceff" r="5" cy="0" cx="0"></circle>
<animate values="1;0.5;1" begin="-0.4162330905306972s" keySplines="0.2 0 0.8 1;0.2 0 0.8 1" calcMode="spline" keyTimes="0;0.5;1" repeatCount="indefinite" dur="0.6451612903225806s" attributeName="opacity"></animate>
</g><g transform="translate(1849.8188812699502 839.4332561825426) rotate(90.98219672919747) scale(0.22985909407338698)">
<circle fill="#00ceff" r="5" cy="0" cx="0"></circle>
<animate values="1;0.5;1" begin="-0.42085790264770495s" keySplines="0.2 0 0.8 1;0.2 0 0.8 1" calcMode="spline" keyTimes="0;0.5;1" repeatCount="indefinite" dur="0.6451612903225806s" attributeName="opacity"></animate>
</g><g transform="translate(634.1209664828713 20.59497232669539) rotate(186.5728958087612) scale(0.21374014422444806)">
<circle fill="#00ceff" r="5" cy="0" cx="0"></circle>
<animate values="1;0.5;1" begin="-0.42548271476471267s" keySplines="0.2 0 0.8 1;0.2 0 0.8 1" calcMode="spline" keyTimes="0;0.5;1" repeatCount="indefinite" dur="0.6451612903225806s" attributeName="opacity"></animate>
</g><g transform="translate(653.2907918767429 928.8069678693279) rotate(167.6906121746893) scale(0.25217765436393086)">
<circle fill="#00ceff" r="5" cy="0" cx="0"></circle>
<animate values="1;0.5;1" begin="-0.43010752688172044s" keySplines="0.2 0 0.8 1;0.2 0 0.8 1" calcMode="spline" keyTimes="0;0.5;1" repeatCount="indefinite" dur="0.6451612903225806s" attributeName="opacity"></animate>
</g><g transform="translate(1442.3659438585355 712.0134991262877) rotate(250.84172422400627) scale(0.216660396775182)">
<circle fill="#00ceff" r="5" cy="0" cx="0"></circle>
<animate values="1;0.5;1" begin="-0.43473233899872815s" keySplines="0.2 0 0.8 1;0.2 0 0.8 1" calcMode="spline" keyTimes="0;0.5;1" repeatCount="indefinite" dur="0.6451612903225806s" attributeName="opacity"></animate>
</g><g transform="translate(1684.3748276179747 893.0674392792014) rotate(151.03310887102992) scale(0.21778717474975565)">
<circle fill="#fff291" r="5" cy="0" cx="0"></circle>
<animate values="1;0.5;1" begin="-0.4393571511157359s" keySplines="0.2 0 0.8 1;0.2 0 0.8 1" calcMode="spline" keyTimes="0;0.5;1" repeatCount="indefinite" dur="0.6451612903225806s" attributeName="opacity"></animate>
</g><g transform="translate(1326.828978965314 461.8090745548233) rotate(59.89372386157569) scale(0.2739449657836279)">
<circle fill="#fff291" r="5" cy="0" cx="0"></circle>
<animate values="1;0.5;1" begin="-0.4439819632327437s" keySplines="0.2 0 0.8 1;0.2 0 0.8 1" calcMode="spline" keyTimes="0;0.5;1" repeatCount="indefinite" dur="0.6451612903225806s" attributeName="opacity"></animate>
</g><g transform="translate(1051.619966731709 961.3076927522087) rotate(215.25706171774038) scale(0.2127723824982139)">
<circle fill="#00ceff" r="5" cy="0" cx="0"></circle>
<animate values="1;0.5;1" begin="-0.4486067753497514s" keySplines="0.2 0 0.8 1;0.2 0 0.8 1" calcMode="spline" keyTimes="0;0.5;1" repeatCount="indefinite" dur="0.6451612903225806s" attributeName="opacity"></animate>
</g><g transform="translate(1522.6371027420166 856.5659884464042) rotate(19.265770251494683) scale(0.21924813335118798)">
<circle fill="#00ceff" r="5" cy="0" cx="0"></circle>
<animate values="1;0.5;1" begin="-0.4532315874667592s" keySplines="0.2 0 0.8 1;0.2 0 0.8 1" calcMode="spline" keyTimes="0;0.5;1" repeatCount="indefinite" dur="0.6451612903225806s" attributeName="opacity"></animate>
</g><g transform="translate(1285.2623269218022 981.2888427403248) rotate(216.62521348287666) scale(0.21278458849270804)">
<circle fill="#fff291" r="5" cy="0" cx="0"></circle>
<animate values="1;0.5;1" begin="-0.4578563995837669s" keySplines="0.2 0 0.8 1;0.2 0 0.8 1" calcMode="spline" keyTimes="0;0.5;1" repeatCount="indefinite" dur="0.6451612903225806s" attributeName="opacity"></animate>
</g><g transform="translate(1757.9798009586073 629.6340147187086) rotate(338.8626664193564) scale(0.23015899954724517)">
<circle fill="#fff291" r="5" cy="0" cx="0"></circle>
<animate values="1;0.5;1" begin="-0.46248121170077466s" keySplines="0.2 0 0.8 1;0.2 0 0.8 1" calcMode="spline" keyTimes="0;0.5;1" repeatCount="indefinite" dur="0.6451612903225806s" attributeName="opacity"></animate>
</g><g transform="translate(1020.7143219343363 756.2981077251579) rotate(255.8960124507552) scale(0.18561350547186564)">
<circle fill="#00ceff" r="5" cy="0" cx="0"></circle>
<animate values="1;0.5;1" begin="-0.4671060238177824s" keySplines="0.2 0 0.8 1;0.2 0 0.8 1" calcMode="spline" keyTimes="0;0.5;1" repeatCount="indefinite" dur="0.6451612903225806s" attributeName="opacity"></animate>
</g><g transform="translate(771.788856764414 301.41640386952173) rotate(172.86572466281132) scale(0.24142703996083198)">
<circle fill="#fff291" r="5" cy="0" cx="0"></circle>
<animate values="1;0.5;1" begin="-0.4717308359347901s" keySplines="0.2 0 0.8 1;0.2 0 0.8 1" calcMode="spline" keyTimes="0;0.5;1" repeatCount="indefinite" dur="0.6451612903225806s" attributeName="opacity"></animate>
</g><g transform="translate(347.7858931733776 644.5940913356374) rotate(105.24077363434485) scale(0.26311846831375174)">
<circle fill="#00ceff" r="5" cy="0" cx="0"></circle>
<animate values="1;0.5;1" begin="-0.4763556480517979s" keySplines="0.2 0 0.8 1;0.2 0 0.8 1" calcMode="spline" keyTimes="0;0.5;1" repeatCount="indefinite" dur="0.6451612903225806s" attributeName="opacity"></animate>
</g><g transform="translate(684.6370223508646 74.85021410085632) rotate(62.08991722433795) scale(0.2363542982027838)">
<circle fill="#00ceff" r="5" cy="0" cx="0"></circle>
<animate values="1;0.5;1" begin="-0.48098046016880563s" keySplines="0.2 0 0.8 1;0.2 0 0.8 1" calcMode="spline" keyTimes="0;0.5;1" repeatCount="indefinite" dur="0.6451612903225806s" attributeName="opacity"></animate>
</g><g transform="translate(538.3386602103508 325.03499951301467) rotate(151.86856738606141) scale(0.23418387010612557)">
<circle fill="#fff291" r="5" cy="0" cx="0"></circle>
<animate values="1;0.5;1" begin="-0.48560527228581335s" keySplines="0.2 0 0.8 1;0.2 0 0.8 1" calcMode="spline" keyTimes="0;0.5;1" repeatCount="indefinite" dur="0.6451612903225806s" attributeName="opacity"></animate>
</g><g transform="translate(1288.1503422687024 485.72597204551033) rotate(347.5871289873197) scale(0.2653723393457752)">
<circle fill="#00ceff" r="5" cy="0" cx="0"></circle>
<animate values="1;0.5;1" begin="-0.4902300844028212s" keySplines="0.2 0 0.8 1;0.2 0 0.8 1" calcMode="spline" keyTimes="0;0.5;1" repeatCount="indefinite" dur="0.6451612903225806s" attributeName="opacity"></animate>
</g><g transform="translate(1776.615699445008 456.5381637116443) rotate(215.09986547843627) scale(0.22298643827453068)">
<circle fill="#fff291" r="5" cy="0" cx="0"></circle>
<animate values="1;0.5;1" begin="-0.4948548965198289s" keySplines="0.2 0 0.8 1;0.2 0 0.8 1" calcMode="spline" keyTimes="0;0.5;1" repeatCount="indefinite" dur="0.6451612903225806s" attributeName="opacity"></animate>
</g><g transform="translate(1778.236947811201 270.14401948831886) rotate(250.72537846384185) scale(0.19085653109889406)">
<circle fill="#00ceff" r="5" cy="0" cx="0"></circle>
<animate values="1;0.5;1" begin="-0.4994797086368366s" keySplines="0.2 0 0.8 1;0.2 0 0.8 1" calcMode="spline" keyTimes="0;0.5;1" repeatCount="indefinite" dur="0.6451612903225806s" attributeName="opacity"></animate>
</g><g transform="translate(1861.9410934418827 34.1902720187188) rotate(285.5589902014843) scale(0.2706458922561259)">
<circle fill="#00ceff" r="5" cy="0" cx="0"></circle>
<animate values="1;0.5;1" begin="-0.5041045207538444s" keySplines="0.2 0 0.8 1;0.2 0 0.8 1" calcMode="spline" keyTimes="0;0.5;1" repeatCount="indefinite" dur="0.6451612903225806s" attributeName="opacity"></animate>
</g><g transform="translate(632.7962499357727 219.26100042137395) rotate(6.951786215203908) scale(0.21564634880125183)">
<circle fill="#00ceff" r="5" cy="0" cx="0"></circle>
<animate values="1;0.5;1" begin="-0.5087293328708521s" keySplines="0.2 0 0.8 1;0.2 0 0.8 1" calcMode="spline" keyTimes="0;0.5;1" repeatCount="indefinite" dur="0.6451612903225806s" attributeName="opacity"></animate>
</g><g transform="translate(1760.3546393876948 918.8142379469557) rotate(321.16359951287467) scale(0.24886910453448452)">
<circle fill="#00ceff" r="5" cy="0" cx="0"></circle>
<animate values="1;0.5;1" begin="-0.5133541449878598s" keySplines="0.2 0 0.8 1;0.2 0 0.8 1" calcMode="spline" keyTimes="0;0.5;1" repeatCount="indefinite" dur="0.6451612903225806s" attributeName="opacity"></animate>
</g><g transform="translate(1275.092143461426 226.49101467977073) rotate(147.19846745126128) scale(0.21272886529905805)">
<circle fill="#fff291" r="5" cy="0" cx="0"></circle>
<animate values="1;0.5;1" begin="-0.5179789571048675s" keySplines="0.2 0 0.8 1;0.2 0 0.8 1" calcMode="spline" keyTimes="0;0.5;1" repeatCount="indefinite" dur="0.6451612903225806s" attributeName="opacity"></animate>
</g><g transform="translate(638.924091293469 622.5132683752676) rotate(135.8149017708802) scale(0.20977688482655651)">
<circle fill="#fff291" r="5" cy="0" cx="0"></circle>
<animate values="1;0.5;1" begin="-0.5226037692218753s" keySplines="0.2 0 0.8 1;0.2 0 0.8 1" calcMode="spline" keyTimes="0;0.5;1" repeatCount="indefinite" dur="0.6451612903225806s" attributeName="opacity"></animate>
</g><g transform="translate(1419.325151834613 421.6383005899125) rotate(206.3422378816026) scale(0.25947636686703296)">
<circle fill="#00ceff" r="5" cy="0" cx="0"></circle>
<animate values="1;0.5;1" begin="-0.5272285813388831s" keySplines="0.2 0 0.8 1;0.2 0 0.8 1" calcMode="spline" keyTimes="0;0.5;1" repeatCount="indefinite" dur="0.6451612903225806s" attributeName="opacity"></animate>
</g><g transform="translate(751.1715161309561 302.586228248685) rotate(161.84934568461816) scale(0.23552008119506834)">
<circle fill="#00ceff" r="5" cy="0" cx="0"></circle>
<animate values="1;0.5;1" begin="-0.5318533934558908s" keySplines="0.2 0 0.8 1;0.2 0 0.8 1" calcMode="spline" keyTimes="0;0.5;1" repeatCount="indefinite" dur="0.6451612903225806s" attributeName="opacity"></animate>
</g><g transform="translate(1595.0496691951014 289.0587354164043) rotate(189.22485835127662) scale(0.24133052661732798)">
<circle fill="#00ceff" r="5" cy="0" cx="0"></circle>
<animate values="1;0.5;1" begin="-0.5364782055728986s" keySplines="0.2 0 0.8 1;0.2 0 0.8 1" calcMode="spline" keyTimes="0;0.5;1" repeatCount="indefinite" dur="0.6451612903225806s" attributeName="opacity"></animate>
</g><g transform="translate(1577.0268464464473 36.71849547748659) rotate(136.9664220640497) scale(0.23788345366115163)">
<circle fill="#00ceff" r="5" cy="0" cx="0"></circle>
<animate values="1;0.5;1" begin="-0.5411030176899063s" keySplines="0.2 0 0.8 1;0.2 0 0.8 1" calcMode="spline" keyTimes="0;0.5;1" repeatCount="indefinite" dur="0.6451612903225806s" attributeName="opacity"></animate>
</g><g transform="translate(1142.2219252929362 971.927212800485) rotate(185.54675034020664) scale(0.2416555318126773)">
<circle fill="#fff291" r="5" cy="0" cx="0"></circle>
<animate values="1;0.5;1" begin="-0.545727829806914s" keySplines="0.2 0 0.8 1;0.2 0 0.8 1" calcMode="spline" keyTimes="0;0.5;1" repeatCount="indefinite" dur="0.6451612903225806s" attributeName="opacity"></animate>
</g><g transform="translate(1496.6857807962751 786.0158050670508) rotate(151.17892607937233) scale(0.23952199979461875)">
<circle fill="#fff291" r="5" cy="0" cx="0"></circle>
<animate values="1;0.5;1" begin="-0.5503526419239217s" keySplines="0.2 0 0.8 1;0.2 0 0.8 1" calcMode="spline" keyTimes="0;0.5;1" repeatCount="indefinite" dur="0.6451612903225806s" attributeName="opacity"></animate>
</g><g transform="translate(1874.2275582038294 297.9494118740739) rotate(49.65832032011989) scale(0.2599842578633918)">
<circle fill="#00ceff" r="5" cy="0" cx="0"></circle>
<animate values="1;0.5;1" begin="-0.5549774540409296s" keySplines="0.2 0 0.8 1;0.2 0 0.8 1" calcMode="spline" keyTimes="0;0.5;1" repeatCount="indefinite" dur="0.6451612903225806s" attributeName="opacity"></animate>
</g><g transform="translate(560.4070087900586 128.68156699338306) rotate(231.44481971569365) scale(0.24492147144762738)">
<circle fill="#fff291" r="5" cy="0" cx="0"></circle>
<animate values="1;0.5;1" begin="-0.5596022661579373s" keySplines="0.2 0 0.8 1;0.2 0 0.8 1" calcMode="spline" keyTimes="0;0.5;1" repeatCount="indefinite" dur="0.6451612903225806s" attributeName="opacity"></animate>
</g><g transform="translate(1094.6467700392204 821.2770740683462) rotate(269.76176782256374) scale(0.23372212595549388)">
<circle fill="#00ceff" r="5" cy="0" cx="0"></circle>
<animate values="1;0.5;1" begin="-0.564227078274945s" keySplines="0.2 0 0.8 1;0.2 0 0.8 1" calcMode="spline" keyTimes="0;0.5;1" repeatCount="indefinite" dur="0.6451612903225806s" attributeName="opacity"></animate>
</g><g transform="translate(683.1260596249437 454.73960319497274) rotate(52.68850316319118) scale(0.27228514208625826)">
<circle fill="#00ceff" r="5" cy="0" cx="0"></circle>
<animate values="1;0.5;1" begin="-0.5688518903919528s" keySplines="0.2 0 0.8 1;0.2 0 0.8 1" calcMode="spline" keyTimes="0;0.5;1" repeatCount="indefinite" dur="0.6451612903225806s" attributeName="opacity"></animate>
</g><g transform="translate(520.7841909957773 901.3738175996566) rotate(236.32764541731026) scale(0.19410171016360228)">
<circle fill="#00ceff" r="5" cy="0" cx="0"></circle>
<animate values="1;0.5;1" begin="-0.5734767025089605s" keySplines="0.2 0 0.8 1;0.2 0 0.8 1" calcMode="spline" keyTimes="0;0.5;1" repeatCount="indefinite" dur="0.6451612903225806s" attributeName="opacity"></animate>
</g><g transform="translate(247.86052885336062 382.5543553644714) rotate(317.54809265415764) scale(0.23581272832498615)">
<circle fill="#00ceff" r="5" cy="0" cx="0"></circle>
<animate values="1;0.5;1" begin="-0.5781015146259683s" keySplines="0.2 0 0.8 1;0.2 0 0.8 1" calcMode="spline" keyTimes="0;0.5;1" repeatCount="indefinite" dur="0.6451612903225806s" attributeName="opacity"></animate>
</g><g transform="translate(578.2621152512124 344.39322971744247) rotate(233.34857213457516) scale(0.23315317181184383)">
<circle fill="#fff291" r="5" cy="0" cx="0"></circle>
<animate values="1;0.5;1" begin="-0.582726326742976s" keySplines="0.2 0 0.8 1;0.2 0 0.8 1" calcMode="spline" keyTimes="0;0.5;1" repeatCount="indefinite" dur="0.6451612903225806s" attributeName="opacity"></animate>
</g><g transform="translate(1208.8669835012233 189.4107701994444) rotate(29.319557468694256) scale(0.20592799593968555)">
<circle fill="#00ceff" r="5" cy="0" cx="0"></circle>
<animate values="1;0.5;1" begin="-0.5873511388599838s" keySplines="0.2 0 0.8 1;0.2 0 0.8 1" calcMode="spline" keyTimes="0;0.5;1" repeatCount="indefinite" dur="0.6451612903225806s" attributeName="opacity"></animate>
</g><g transform="translate(756.5813577115814 681.6294937277751) rotate(280.8047778562644) scale(0.22280318195303944)">
<circle fill="#00ceff" r="5" cy="0" cx="0"></circle>
<animate values="1;0.5;1" begin="-0.5919759509769915s" keySplines="0.2 0 0.8 1;0.2 0 0.8 1" calcMode="spline" keyTimes="0;0.5;1" repeatCount="indefinite" dur="0.6451612903225806s" attributeName="opacity"></animate>
</g><g transform="translate(929.397103694702 562.4525645870183) rotate(327.30685276416597) scale(0.2459802813526588)">
<circle fill="#00ceff" r="5" cy="0" cx="0"></circle>
<animate values="1;0.5;1" begin="-0.5966007630939992s" keySplines="0.2 0 0.8 1;0.2 0 0.8 1" calcMode="spline" keyTimes="0;0.5;1" repeatCount="indefinite" dur="0.6451612903225806s" attributeName="opacity"></animate>
</g><g transform="translate(1999.6499701129248 292.43395122354445) rotate(280.6934795095707) scale(0.1998554502913882)">
<circle fill="#fff291" r="5" cy="0" cx="0"></circle>
<animate values="1;0.5;1" begin="-0.6012255752110071s" keySplines="0.2 0 0.8 1;0.2 0 0.8 1" calcMode="spline" keyTimes="0;0.5;1" repeatCount="indefinite" dur="0.6451612903225806s" attributeName="opacity"></animate>
</g><g transform="translate(243.52005159375904 340.1663047630537) rotate(99.98763609725415) scale(0.2537250006522183)">
<circle fill="#00ceff" r="5" cy="0" cx="0"></circle>
<animate values="1;0.5;1" begin="-0.6058503873280148s" keySplines="0.2 0 0.8 1;0.2 0 0.8 1" calcMode="spline" keyTimes="0;0.5;1" repeatCount="indefinite" dur="0.6451612903225806s" attributeName="opacity"></animate>
</g><g transform="translate(803.0696775726828 52.05746178546242) rotate(12.25210754434717) scale(0.2054771777082981)">
<circle fill="#fff291" r="5" cy="0" cx="0"></circle>
<animate values="1;0.5;1" begin="-0.6104751994450225s" keySplines="0.2 0 0.8 1;0.2 0 0.8 1" calcMode="spline" keyTimes="0;0.5;1" repeatCount="indefinite" dur="0.6451612903225806s" attributeName="opacity"></animate>
</g><g transform="translate(1773.3834484967751 773.9403061904712) rotate(291.67894988400667) scale(0.18897547815487212)">
<circle fill="#00ceff" r="5" cy="0" cx="0"></circle>
<animate values="1;0.5;1" begin="-0.6151000115620302s" keySplines="0.2 0 0.8 1;0.2 0 0.8 1" calcMode="spline" keyTimes="0;0.5;1" repeatCount="indefinite" dur="0.6451612903225806s" attributeName="opacity"></animate>
</g><g transform="translate(959.5578482659386 706.9675805246303) rotate(98.64952476145868) scale(0.19557695809109185)">
<circle fill="#fff291" r="5" cy="0" cx="0"></circle>
<animate values="1;0.5;1" begin="-0.619724823679038s" keySplines="0.2 0 0.8 1;0.2 0 0.8 1" calcMode="spline" keyTimes="0;0.5;1" repeatCount="indefinite" dur="0.6451612903225806s" attributeName="opacity"></animate>
</g><g transform="translate(1959.599453719931 193.92799706269597) rotate(103.07943415003182) scale(0.2300163376111699)">
<circle fill="#fff291" r="5" cy="0" cx="0"></circle>
<animate values="1;0.5;1" begin="-0.6243496357960457s" keySplines="0.2 0 0.8 1;0.2 0 0.8 1" calcMode="spline" keyTimes="0;0.5;1" repeatCount="indefinite" dur="0.6451612903225806s" attributeName="opacity"></animate>
</g><g transform="translate(1982.9627791463492 440.2091440506067) rotate(285.18606239153524) scale(0.2483863554429441)">
<circle fill="#fff291" r="5" cy="0" cx="0"></circle>
<animate values="1;0.5;1" begin="-0.6289744479130535s" keySplines="0.2 0 0.8 1;0.2 0 0.8 1" calcMode="spline" keyTimes="0;0.5;1" repeatCount="indefinite" dur="0.6451612903225806s" attributeName="opacity"></animate>
</g><g transform="translate(57.298397593384266 692.9164575541279) rotate(123.29437276274278) scale(0.1881622873166343)">
<circle fill="#00ceff" r="5" cy="0" cx="0"></circle>
<animate values="1;0.5;1" begin="-0.6335992600300613s" keySplines="0.2 0 0.8 1;0.2 0 0.8 1" calcMode="spline" keyTimes="0;0.5;1" repeatCount="indefinite" dur="0.6451612903225806s" attributeName="opacity"></animate>
</g><g transform="translate(1388.1860009708043 963.0794141494167) rotate(159.85022133778472) scale(0.2149249932701997)">
<circle fill="#fff291" r="5" cy="0" cx="0"></circle>
<animate values="1;0.5;1" begin="-0.638224072147069s" keySplines="0.2 0 0.8 1;0.2 0 0.8 1" calcMode="spline" keyTimes="0;0.5;1" repeatCount="indefinite" dur="0.6451612903225806s" attributeName="opacity"></animate>
</g><g transform="translate(1217.1499304073236 45.19035967635773) rotate(116.90193371152034) scale(0.1992026944111248)">
<circle fill="#fff291" r="5" cy="0" cx="0"></circle>
<animate values="1;0.5;1" begin="-0.6428488842640767s" keySplines="0.2 0 0.8 1;0.2 0 0.8 1" calcMode="spline" keyTimes="0;0.5;1" repeatCount="indefinite" dur="0.6451612903225806s" attributeName="opacity"></animate>
</g><g transform="translate(1143.6689719228893 955.5421608975543) rotate(177.5974332754537) scale(0.22985661551464157)">
<circle fill="#00ceff" r="5" cy="0" cx="0"></circle>
<animate values="1;0.5;1" begin="-0.6474736963810844s" keySplines="0.2 0 0.8 1;0.2 0 0.8 1" calcMode="spline" keyTimes="0;0.5;1" repeatCount="indefinite" dur="0.6451612903225806s" attributeName="opacity"></animate>
</g><g transform="translate(1751.468611215018 67.61288330465706) rotate(317.83975902822067) scale(0.1857898507919954)">
<circle fill="#fff291" r="5" cy="0" cx="0"></circle>
<animate values="1;0.5;1" begin="-0.6520985084980923s" keySplines="0.2 0 0.8 1;0.2 0 0.8 1" calcMode="spline" keyTimes="0;0.5;1" repeatCount="indefinite" dur="0.6451612903225806s" attributeName="opacity"></animate>
</g><g transform="translate(1914.1241022719576 42.898806649990554) rotate(211.06949881645303) scale(0.2146451853844805)">
<circle fill="#fff291" r="5" cy="0" cx="0"></circle>
<animate values="1;0.5;1" begin="-0.6567233206151s" keySplines="0.2 0 0.8 1;0.2 0 0.8 1" calcMode="spline" keyTimes="0;0.5;1" repeatCount="indefinite" dur="0.6451612903225806s" attributeName="opacity"></animate>
</g><g transform="translate(1175.399347730426 706.1726541013306) rotate(196.45842032692886) scale(0.21871632928002424)">
<circle fill="#fff291" r="5" cy="0" cx="0"></circle>
<animate values="1;0.5;1" begin="-0.6613481327321077s" keySplines="0.2 0 0.8 1;0.2 0 0.8 1" calcMode="spline" keyTimes="0;0.5;1" repeatCount="indefinite" dur="0.6451612903225806s" attributeName="opacity"></animate>
</g><g transform="translate(1844.931007720366 983.6486926493625) rotate(176.88002646340607) scale(0.24944353027653382)">
<circle fill="#fff291" r="5" cy="0" cx="0"></circle>
<animate values="1;0.5;1" begin="-0.6659729448491155s" keySplines="0.2 0 0.8 1;0.2 0 0.8 1" calcMode="spline" keyTimes="0;0.5;1" repeatCount="indefinite" dur="0.6451612903225806s" attributeName="opacity"></animate>
</g><g transform="translate(1276.4532188008754 492.234114298598) rotate(222.93510686630123) scale(0.1848730874647349)">
<circle fill="#00ceff" r="5" cy="0" cx="0"></circle>
<animate values="1;0.5;1" begin="-0.6705977569661232s" keySplines="0.2 0 0.8 1;0.2 0 0.8 1" calcMode="spline" keyTimes="0;0.5;1" repeatCount="indefinite" dur="0.6451612903225806s" attributeName="opacity"></animate>
</g><g transform="translate(663.4782942240726 33.59146081844516) rotate(26.012141521116003) scale(0.18900693108150612)">
<circle fill="#00ceff" r="5" cy="0" cx="0"></circle>
<animate values="1;0.5;1" begin="-0.6752225690831309s" keySplines="0.2 0 0.8 1;0.2 0 0.8 1" calcMode="spline" keyTimes="0;0.5;1" repeatCount="indefinite" dur="0.6451612903225806s" attributeName="opacity"></animate>
</g><g transform="translate(476.5647182257445 128.75078053970668) rotate(210.89051227246642) scale(0.276882759640372)">
<circle fill="#00ceff" r="5" cy="0" cx="0"></circle>
<animate values="1;0.5;1" begin="-0.6798473812001387s" keySplines="0.2 0 0.8 1;0.2 0 0.8 1" calcMode="spline" keyTimes="0;0.5;1" repeatCount="indefinite" dur="0.6451612903225806s" attributeName="opacity"></animate>
</g><g transform="translate(1794.8657395547277 285.6991095768462) rotate(105.98376963826685) scale(0.27627075721115085)">
<circle fill="#fff291" r="5" cy="0" cx="0"></circle>
<animate values="1;0.5;1" begin="-0.6844721933171465s" keySplines="0.2 0 0.8 1;0.2 0 0.8 1" calcMode="spline" keyTimes="0;0.5;1" repeatCount="indefinite" dur="0.6451612903225806s" attributeName="opacity"></animate>
</g><g transform="translate(1936.5511278038002 817.3015576033808) rotate(114.05102194651747) scale(0.19368332523889054)">
<circle fill="#fff291" r="5" cy="0" cx="0"></circle>
<animate values="1;0.5;1" begin="-0.6890970054341542s" keySplines="0.2 0 0.8 1;0.2 0 0.8 1" calcMode="spline" keyTimes="0;0.5;1" repeatCount="indefinite" dur="0.6451612903225806s" attributeName="opacity"></animate>
</g><g transform="translate(1462.0464439843263 557.5842295094517) rotate(144.68451709822702) scale(0.2730720386979422)">
<circle fill="#00ceff" r="5" cy="0" cx="0"></circle>
<animate values="1;0.5;1" begin="-0.6937218175511619s" keySplines="0.2 0 0.8 1;0.2 0 0.8 1" calcMode="spline" keyTimes="0;0.5;1" repeatCount="indefinite" dur="0.6451612903225806s" attributeName="opacity"></animate>
</g><g transform="translate(907.6002314914342 33.477117409383354) rotate(272.1788490972841) scale(0.24120712843647849)">
<circle fill="#fff291" r="5" cy="0" cx="0"></circle>
<animate values="1;0.5;1" begin="-0.6983466296681697s" keySplines="0.2 0 0.8 1;0.2 0 0.8 1" calcMode="spline" keyTimes="0;0.5;1" repeatCount="indefinite" dur="0.6451612903225806s" attributeName="opacity"></animate>
</g><g transform="translate(129.2598775870212 81.5927361397645) rotate(358.1062396881495) scale(0.23762205387658733)">
<circle fill="#00ceff" r="5" cy="0" cx="0"></circle>
<animate values="1;0.5;1" begin="-0.7029714417851775s" keySplines="0.2 0 0.8 1;0.2 0 0.8 1" calcMode="spline" keyTimes="0;0.5;1" repeatCount="indefinite" dur="0.6451612903225806s" attributeName="opacity"></animate>
</g><g transform="translate(1342.3705407274965 132.49658349687027) rotate(357.27636817343614) scale(0.20035571694644136)">
<circle fill="#fff291" r="5" cy="0" cx="0"></circle>
<animate values="1;0.5;1" begin="-0.7075962539021852s" keySplines="0.2 0 0.8 1;0.2 0 0.8 1" calcMode="spline" keyTimes="0;0.5;1" repeatCount="indefinite" dur="0.6451612903225806s" attributeName="opacity"></animate>
</g><g transform="translate(448.67364219213533 803.9312012745633) rotate(340.05699859651065) scale(0.18598577262935626)">
<circle fill="#00ceff" r="5" cy="0" cx="0"></circle>
<animate values="1;0.5;1" begin="-0.712221066019193s" keySplines="0.2 0 0.8 1;0.2 0 0.8 1" calcMode="spline" keyTimes="0;0.5;1" repeatCount="indefinite" dur="0.6451612903225806s" attributeName="opacity"></animate>
</g><g transform="translate(788.5934386572445 48.68857977778952) rotate(178.84169452871035) scale(0.19428281296083064)">
<circle fill="#fff291" r="5" cy="0" cx="0"></circle>
<animate values="1;0.5;1" begin="-0.7168458781362007s" keySplines="0.2 0 0.8 1;0.2 0 0.8 1" calcMode="spline" keyTimes="0;0.5;1" repeatCount="indefinite" dur="0.6451612903225806s" attributeName="opacity"></animate>
</g><g transform="translate(1547.1070967364774 507.03316070083787) rotate(350.5527575561816) scale(0.19671242432853928)">
<circle fill="#00ceff" r="5" cy="0" cx="0"></circle>
<animate values="1;0.5;1" begin="-0.7214706902532084s" keySplines="0.2 0 0.8 1;0.2 0 0.8 1" calcMode="spline" keyTimes="0;0.5;1" repeatCount="indefinite" dur="0.6451612903225806s" attributeName="opacity"></animate>
</g><g transform="translate(1196.2439334236701 834.4387482770912) rotate(41.121281267756565) scale(0.25536183645178434)">
<circle fill="#00ceff" r="5" cy="0" cx="0"></circle>
<animate values="1;0.5;1" begin="-0.7260955023702161s" keySplines="0.2 0 0.8 1;0.2 0 0.8 1" calcMode="spline" keyTimes="0;0.5;1" repeatCount="indefinite" dur="0.6451612903225806s" attributeName="opacity"></animate>
</g><g transform="translate(1574.0739973349796 622.0577805506144) rotate(98.21061752413254) scale(0.26703009684873885)">
<circle fill="#fff291" r="5" cy="0" cx="0"></circle>
<animate values="1;0.5;1" begin="-0.730720314487224s" keySplines="0.2 0 0.8 1;0.2 0 0.8 1" calcMode="spline" keyTimes="0;0.5;1" repeatCount="indefinite" dur="0.6451612903225806s" attributeName="opacity"></animate>
</g><g transform="translate(501.3918321422819 733.4047656095436) rotate(337.36140639227506) scale(0.24005280674985593)">
<circle fill="#fff291" r="5" cy="0" cx="0"></circle>
<animate values="1;0.5;1" begin="-0.7353451266042317s" keySplines="0.2 0 0.8 1;0.2 0 0.8 1" calcMode="spline" keyTimes="0;0.5;1" repeatCount="indefinite" dur="0.6451612903225806s" attributeName="opacity"></animate>
</g><g transform="translate(999.3324147027563 161.1999833758591) rotate(89.52952469045755) scale(0.2282275842776024)">
<circle fill="#fff291" r="5" cy="0" cx="0"></circle>
<animate values="1;0.5;1" begin="-0.7399699387212394s" keySplines="0.2 0 0.8 1;0.2 0 0.8 1" calcMode="spline" keyTimes="0;0.5;1" repeatCount="indefinite" dur="0.6451612903225806s" attributeName="opacity"></animate>
</g><g transform="translate(1740.6479453146665 165.8863236622522) rotate(300.1054001746545) scale(0.2170800683960653)">
<circle fill="#fff291" r="5" cy="0" cx="0"></circle>
<animate values="1;0.5;1" begin="-0.7445947508382472s" keySplines="0.2 0 0.8 1;0.2 0 0.8 1" calcMode="spline" keyTimes="0;0.5;1" repeatCount="indefinite" dur="0.6451612903225806s" attributeName="opacity"></animate>
</g><g transform="translate(1137.4174882971909 568.3774214534411) rotate(17.25651243044416) scale(0.20476185770157188)">
<circle fill="#fff291" r="5" cy="0" cx="0"></circle>
<animate values="1;0.5;1" begin="-0.7492195629552549s" keySplines="0.2 0 0.8 1;0.2 0 0.8 1" calcMode="spline" keyTimes="0;0.5;1" repeatCount="indefinite" dur="0.6451612903225806s" attributeName="opacity"></animate>
</g><g transform="translate(720.5627245218894 351.7927302515159) rotate(290.8229555650904) scale(0.19824669095254235)">
<circle fill="#00ceff" r="5" cy="0" cx="0"></circle>
<animate values="1;0.5;1" begin="-0.7538443750722627s" keySplines="0.2 0 0.8 1;0.2 0 0.8 1" calcMode="spline" keyTimes="0;0.5;1" repeatCount="indefinite" dur="0.6451612903225806s" attributeName="opacity"></animate>
</g><g transform="translate(418.37373382015494 764.897033657853) rotate(220.93417870744886) scale(0.2486117674977059)">
<circle fill="#00ceff" r="5" cy="0" cx="0"></circle>
<animate values="1;0.5;1" begin="-0.7584691871892704s" keySplines="0.2 0 0.8 1;0.2 0 0.8 1" calcMode="spline" keyTimes="0;0.5;1" repeatCount="indefinite" dur="0.6451612903225806s" attributeName="opacity"></animate>
</g><g transform="translate(4.066503111307702 306.350049143849) rotate(296.31751517363165) scale(0.212631768950658)">
<circle fill="#00ceff" r="5" cy="0" cx="0"></circle>
<animate values="1;0.5;1" begin="-0.7630939993062782s" keySplines="0.2 0 0.8 1;0.2 0 0.8 1" calcMode="spline" keyTimes="0;0.5;1" repeatCount="indefinite" dur="0.6451612903225806s" attributeName="opacity"></animate>
</g><g transform="translate(2039.6067735834606 530.7107446804448) rotate(241.73270111356163) scale(0.2455082716541908)">
<circle fill="#00ceff" r="5" cy="0" cx="0"></circle>
<animate values="1;0.5;1" begin="-0.7677188114232859s" keySplines="0.2 0 0.8 1;0.2 0 0.8 1" calcMode="spline" keyTimes="0;0.5;1" repeatCount="indefinite" dur="0.6451612903225806s" attributeName="opacity"></animate>
</g><g transform="translate(1722.123155284581 399.12755221715344) rotate(151.84042504900327) scale(0.1883779987518606)">
<circle fill="#00ceff" r="5" cy="0" cx="0"></circle>
<animate values="1;0.5;1" begin="-0.7723436235402936s" keySplines="0.2 0 0.8 1;0.2 0 0.8 1" calcMode="spline" keyTimes="0;0.5;1" repeatCount="indefinite" dur="0.6451612903225806s" attributeName="opacity"></animate>
</g><g transform="translate(1825.6898057539336 421.48575851348556) rotate(80.88348282661856) scale(0.2538005925399159)">
<circle fill="#00ceff" r="5" cy="0" cx="0"></circle>
<animate values="1;0.5;1" begin="-0.7769684356573014s" keySplines="0.2 0 0.8 1;0.2 0 0.8 1" calcMode="spline" keyTimes="0;0.5;1" repeatCount="indefinite" dur="0.6451612903225806s" attributeName="opacity"></animate>
</g><g transform="translate(1941.597765741018 610.4079119576165) rotate(238.57045126325286) scale(0.18713953296416252)">
<circle fill="#fff291" r="5" cy="0" cx="0"></circle>
<animate values="1;0.5;1" begin="-0.7815932477743092s" keySplines="0.2 0 0.8 1;0.2 0 0.8 1" calcMode="spline" keyTimes="0;0.5;1" repeatCount="indefinite" dur="0.6451612903225806s" attributeName="opacity"></animate>
</g><g transform="translate(1545.871491844664 419.779866452544) rotate(116.10259560221206) scale(0.24969018462964598)">
<circle fill="#00ceff" r="5" cy="0" cx="0"></circle>
<animate values="1;0.5;1" begin="-0.7862180598913169s" keySplines="0.2 0 0.8 1;0.2 0 0.8 1" calcMode="spline" keyTimes="0;0.5;1" repeatCount="indefinite" dur="0.6451612903225806s" attributeName="opacity"></animate>
</g><g transform="translate(1086.8818909800664 277.7236357380234) rotate(108.75945841166445) scale(0.24105272446883216)">
<circle fill="#fff291" r="5" cy="0" cx="0"></circle>
<animate values="1;0.5;1" begin="-0.7908428720083246s" keySplines="0.2 0 0.8 1;0.2 0 0.8 1" calcMode="spline" keyTimes="0;0.5;1" repeatCount="indefinite" dur="0.6451612903225806s" attributeName="opacity"></animate>
</g><g transform="translate(1519.6887185398662 834.3141269959085) rotate(319.897800740431) scale(0.20516879699285237)">
<circle fill="#fff291" r="5" cy="0" cx="0"></circle>
<animate values="1;0.5;1" begin="-0.7954676841253324s" keySplines="0.2 0 0.8 1;0.2 0 0.8 1" calcMode="spline" keyTimes="0;0.5;1" repeatCount="indefinite" dur="0.6451612903225806s" attributeName="opacity"></animate>
</g><g></g></g><!-- [ldio] generated by https://loading.io --></svg>